<?xml version="1.0" encoding="utf-8"?>
<!-- Generator: Adobe Illustrator 23.0.1, SVG Export Plug-In . SVG Version: 6.00 Build 0)  -->
<svg version="1.1" id="Capa_1" xmlns="http://www.w3.org/2000/svg" xmlns:xlink="http://www.w3.org/1999/xlink" x="0px" y="0px"
	 viewBox="0 0 150 102" style="enable-background:new 0 0 150 102;" xml:space="preserve">
<style type="text/css">
	.st0{fill-rule:evenodd;clip-rule:evenodd;}
</style>
<g id="svgg">
	<path id="path8" class="st0" d="M74,22.5c-0.02,0.02-0.21,0.04-0.44,0.06c-0.81,0.05-1.3,0.12-1.93,0.24
		c-0.35,0.07-0.7,0.14-0.79,0.15c-0.29,0.04-1.24,0.28-1.6,0.41c-0.2,0.07-0.36,0.1-0.36,0.08c0-0.02-0.03-0.01-0.08,0.03
		s-0.12,0.08-0.17,0.08c-0.05,0-0.21,0.06-0.34,0.13c-0.13,0.07-0.23,0.1-0.2,0.07c0.02-0.03-0.05-0.03-0.15,0.01
		c-0.1,0.04-0.19,0.1-0.19,0.12c0,0.03-0.03,0.04-0.06,0.02c-0.03-0.02-0.08-0.01-0.1,0.03c-0.02,0.04-0.08,0.06-0.13,0.06
		c-0.05,0-0.24,0.07-0.42,0.15c-0.75,0.35-0.91,0.42-0.98,0.42c-0.04,0-0.07,0.03-0.07,0.06c0,0.03-0.08,0.08-0.17,0.1
		c-0.09,0.02-0.24,0.1-0.32,0.16C65.39,24.94,65.29,25,65.25,25s-0.11,0.04-0.16,0.09c-0.04,0.05-0.1,0.08-0.13,0.06
		c-0.03-0.02-0.08,0.01-0.13,0.06c-0.04,0.05-0.11,0.09-0.14,0.09c-0.03,0-0.21,0.1-0.39,0.22c-0.18,0.12-0.36,0.22-0.4,0.22
		c-0.04,0-0.1,0.05-0.13,0.11c-0.04,0.06-0.07,0.09-0.07,0.06c0-0.03-0.13,0.05-0.28,0.17c-0.15,0.12-0.3,0.23-0.34,0.23
		c-0.04,0-0.08,0.04-0.1,0.09c-0.02,0.05-0.07,0.09-0.12,0.09c-0.05,0-0.18,0.09-0.29,0.19c-0.11,0.1-0.22,0.19-0.24,0.19
		c-0.09,0-0.53,0.36-0.53,0.43c0,0.05-0.03,0.07-0.06,0.05c-0.03-0.02-0.11,0.04-0.18,0.12c-0.07,0.09-0.15,0.16-0.18,0.16
		c-0.03,0-0.1,0.07-0.14,0.16c-0.05,0.09-0.1,0.14-0.13,0.13c-0.06-0.04-0.82,0.71-0.78,0.75c0.02,0.02,0,0.04-0.04,0.04
		c-0.16,0-1.04,0.99-0.98,1.09c0.02,0.04,0.01,0.05-0.03,0.02c-0.06-0.04-0.22,0.12-0.64,0.62c-0.06,0.07-0.22,0.28-0.36,0.47
		c-0.14,0.19-0.34,0.46-0.44,0.6c-0.32,0.43-0.47,0.67-0.47,0.73c0,0.03-0.02,0.06-0.05,0.08c-0.06,0.02-0.55,0.84-0.74,1.22
		c-0.07,0.14-0.15,0.27-0.18,0.29c-0.03,0.02-0.06,0.1-0.06,0.17c-0.01,0.08-0.03,0.14-0.05,0.14c-0.03,0-0.26,0.4-0.28,0.51
		c0,0.02-0.06,0.14-0.12,0.28s-0.11,0.27-0.11,0.3c0,0.03-0.02,0.06-0.05,0.06c-0.07,0-0.2,0.45-0.16,0.53
		c0.02,0.03,0.01,0.04-0.03,0.02c-0.04-0.03-0.07-0.01-0.07,0.03c0,0.04-0.04,0.16-0.09,0.27c-0.08,0.16-0.37,0.97-0.44,1.21
		c-0.01,0.03-0.06,0.19-0.1,0.35c-0.05,0.16-0.08,0.32-0.07,0.36c0.01,0.04-0.01,0.08-0.04,0.08c-0.03,0-0.06,0.05-0.06,0.11
		c-0.02,0.23-0.06,0.37-0.1,0.44c-0.03,0.04-0.03,0.08-0.01,0.08c0.02,0-0.01,0.1-0.06,0.23c-0.05,0.13-0.08,0.24-0.07,0.26
		c0.02,0.02,0,0.1-0.03,0.19c-0.03,0.09-0.09,0.38-0.13,0.64c-0.04,0.26-0.08,0.55-0.09,0.64c-0.1,0.66-0.15,1-0.15,1.11
		c0,0.24-0.08,1.46-0.11,1.66c-0.05,0.33,0.11,2.77,0.22,3.26c0.03,0.15,0.05,0.29,0.04,0.31c-0.01,0.02,0.02,0.22,0.07,0.45
		c0.05,0.23,0.11,0.55,0.12,0.72c0.02,0.17,0.06,0.36,0.09,0.41c0.03,0.06,0.09,0.27,0.14,0.48c0.05,0.21,0.09,0.39,0.09,0.41
		c0,0.02,0.03,0.12,0.06,0.22c0.03,0.1,0.07,0.22,0.09,0.25c0.02,0.03,0.04,0.11,0.05,0.16c0.03,0.21,0.47,1.47,0.56,1.6
		c0.05,0.08,0.09,0.15,0.09,0.17c0,0.15,0.69,1.67,0.89,1.96c0.06,0.09,0.12,0.17,0.12,0.19c0,0.02,0.03,0.1,0.05,0.17
		c0.02,0.08,0.06,0.14,0.08,0.14c0.03,0,0.1,0.11,0.16,0.25c0.06,0.14,0.14,0.25,0.17,0.25c0.03,0,0.05,0.02,0.04,0.05
		c-0.01,0.03,0.03,0.12,0.1,0.21c0.06,0.08,0.21,0.31,0.33,0.5c0.12,0.19,0.25,0.38,0.28,0.42c0.04,0.04,0.18,0.24,0.32,0.45
		c0.14,0.21,0.31,0.43,0.38,0.51c0.23,0.24,0.13,0.21-0.24-0.08c-0.73-0.57-1.05-0.79-1.11-0.75c-0.03,0.02-0.04,0.01-0.02-0.03
		c0.04-0.07-0.04-0.1-0.17-0.08c-0.03,0-0.04-0.01-0.03-0.04c0.02-0.07-0.22-0.33-0.31-0.33c-0.04,0-0.1-0.04-0.13-0.08
		c-0.09-0.15-0.47-0.43-0.53-0.39c-0.03,0.02-0.04-0.01-0.02-0.06c0.02-0.06,0-0.1-0.06-0.1c-0.05,0-0.11-0.03-0.12-0.07
		c-0.01-0.04-0.08-0.07-0.16-0.08c-0.08-0.01-0.12-0.04-0.1-0.09c0.02-0.05,0-0.08-0.03-0.08c-0.03,0-0.14-0.08-0.24-0.19
		c-0.1-0.1-0.21-0.19-0.23-0.19c-0.03,0-0.1-0.05-0.16-0.11c-0.2-0.19-0.52-0.46-0.54-0.46c-0.03,0-0.32-0.24-0.71-0.59
		c-0.15-0.13-0.27-0.23-0.27-0.21c0,0.02-0.08-0.04-0.18-0.13c-0.48-0.44-0.58-0.52-0.58-0.49c0,0.02-0.07-0.04-0.17-0.12
		c-0.09-0.08-0.2-0.14-0.23-0.11c-0.04,0.02-0.05,0.01-0.02-0.03c0.03-0.04-0.06-0.14-0.21-0.24c-0.14-0.09-0.26-0.19-0.26-0.21
		c0-0.02-0.09-0.09-0.2-0.16c-0.18-0.11-0.26-0.17-0.57-0.45c-0.06-0.05-0.12-0.09-0.15-0.09c-0.03,0-0.15-0.1-0.27-0.22
		c-0.13-0.12-0.25-0.22-0.28-0.22c-0.03,0-0.09-0.04-0.13-0.08c-0.05-0.04-0.18-0.15-0.31-0.23c-0.12-0.08-0.25-0.18-0.28-0.22
		c-0.03-0.04-0.18-0.14-0.32-0.22c-0.14-0.08-0.27-0.17-0.28-0.19c-0.03-0.04-0.89-0.62-1.57-1.06c-0.23-0.15-0.55-0.34-0.72-0.42
		c-0.16-0.08-0.34-0.18-0.39-0.22c-0.17-0.14-1-0.52-1.06-0.48c-0.03,0.02-0.06,0.01-0.06-0.03c0-0.12-1.61-0.8-1.72-0.73
		c-0.03,0.02-0.06,0.01-0.06-0.02c0-0.03-0.18-0.1-0.4-0.17c-0.22-0.07-0.52-0.16-0.67-0.21c-0.15-0.05-0.29-0.07-0.31-0.06
		c-0.02,0.02-0.06,0.01-0.1-0.02c-0.07-0.05-0.73-0.19-1.18-0.24c-0.12-0.01-0.43-0.05-0.67-0.09c-0.63-0.09-2.48-0.03-3.22,0.1
		c-0.17,0.03-0.35,0.05-0.4,0.04c-0.04-0.01-0.08,0.01-0.08,0.04c0,0.03-0.05,0.06-0.11,0.06c-0.31,0.02-0.66,0.11-1.12,0.31
		c-0.1,0.04-0.29,0.1-0.41,0.13c-0.27,0.06-1.77,0.79-1.77,0.87c0,0.03-0.04,0.05-0.09,0.05c-0.05,0-0.09,0.02-0.09,0.05
		s-0.09,0.1-0.21,0.17c-0.11,0.07-0.28,0.19-0.36,0.27c-0.09,0.08-0.18,0.15-0.2,0.15c-0.11,0-1.2,1.15-1.42,1.49
		c-0.07,0.1-0.14,0.2-0.16,0.22c-0.02,0.02-0.12,0.19-0.22,0.38c-0.1,0.19-0.21,0.37-0.25,0.39c-0.03,0.03-0.04,0.05-0.01,0.05
		c0.03,0,0.02,0.04-0.02,0.09c-0.04,0.05-0.06,0.12-0.03,0.16c0.02,0.04,0.01,0.06-0.04,0.05c-0.04-0.01-0.08,0.01-0.09,0.05
		c0,0.03-0.04,0.14-0.08,0.24c-0.13,0.3-0.21,0.52-0.24,0.62c-0.01,0.05-0.06,0.25-0.11,0.45c-0.05,0.19-0.11,0.39-0.14,0.44
		c-0.04,0.06-0.03,0.07,0.04,0.03c0.07-0.04,0.07-0.03,0.01,0.03c-0.04,0.05-0.08,0.13-0.08,0.19c0,0.16-0.12,0.17-0.5,0.05
		c-0.58-0.18-2.38-0.27-3.23-0.17c-0.23,0.03-0.48,0.05-0.57,0.06c-0.09,0-0.29,0.05-0.46,0.09c-0.17,0.05-0.3,0.07-0.3,0.05
		c0-0.02-0.04-0.01-0.08,0.03c-0.04,0.04-0.19,0.08-0.33,0.1c-0.39,0.05-0.69,0.16-1.63,0.6c-0.27,0.12-0.47,0.25-0.45,0.28
		c0.02,0.03,0.01,0.05-0.02,0.05c-0.19-0.03-0.38,0.08-0.79,0.46c-0.1,0.09-0.21,0.18-0.24,0.19c-0.24,0.09-0.87,0.82-0.8,0.94
		c0.02,0.04,0,0.05-0.04,0.04c-0.16-0.06-0.67,0.97-0.88,1.77c-0.09,0.36-0.13,1.86-0.05,1.96c0.03,0.04,0.05,0.12,0.05,0.19
		c-0.02,0.33,0.18,0.99,0.59,1.91c0.36,0.81,1.49,2.18,2.21,2.66c0.63,0.42,0.91,0.59,1.01,0.59c0.06,0,0.13,0.03,0.17,0.06
		c0.15,0.15,1.12,0.23,1.42,0.1c0.23-0.1,0.55-0.41,0.67-0.67c0.1-0.21,0.13-0.31,0.18-0.67c0.13-0.9-1.58-1.85-2.12-1.18
		c-0.06,0.08-0.12,0.13-0.12,0.11c0-0.02-0.06-0.01-0.13,0.03c-0.07,0.04-0.13,0.11-0.13,0.16s-0.04,0.09-0.09,0.09
		c-0.08,0-0.14,0.11-0.2,0.37c-0.04,0.15-0.07,0.14-0.42-0.09c-0.34-0.23-1.26-1.12-1.26-1.23c0-0.03-0.04-0.09-0.09-0.14
		c-0.14-0.14-0.53-1.04-0.59-1.38c-0.12-0.65-0.01-2.13,0.17-2.31c0.03-0.03,0.06-0.11,0.06-0.17c0-0.11,0.35-0.81,0.44-0.87
		c0.02-0.02,0.11-0.14,0.19-0.27c0.08-0.13,0.17-0.24,0.2-0.24c0.05,0,0.15-0.21,0.15-0.33c0-0.02,0.03-0.07,0.06-0.09
		c0.03-0.03,0.04-0.02,0.01,0.03c-0.08,0.15,0.02,0.08,0.29-0.18c0.15-0.14,0.42-0.36,0.62-0.49c0.19-0.12,0.42-0.29,0.5-0.36
		c0.08-0.07,0.16-0.12,0.18-0.11c0.03,0.02,0.13-0.02,0.77-0.31c0.18-0.08,0.38-0.15,0.44-0.16c0.06-0.01,0.22-0.05,0.36-0.08
		c0.95-0.25,2.57-0.34,3.57-0.2c0.25,0.04,0.48,0.05,0.51,0.04c0.03-0.02,0.17,0.01,0.33,0.05l0.28,0.08l0.01,0.47
		c0,0.26,0.03,0.63,0.05,0.82c0.03,0.19,0.05,0.4,0.04,0.47c0,0.07,0.02,0.15,0.04,0.19c0.03,0.04,0.06,0.17,0.07,0.29
		c0.01,0.12,0.06,0.32,0.11,0.44c0.05,0.12,0.08,0.23,0.06,0.25c-0.02,0.02,0.01,0.11,0.07,0.22c0.05,0.1,0.08,0.2,0.06,0.22
		c-0.02,0.02,0.01,0.12,0.07,0.23c0.06,0.11,0.1,0.22,0.09,0.25c-0.02,0.06,0.24,0.68,0.33,0.8c0.04,0.05,0.07,0.15,0.09,0.22
		c0.01,0.07,0.05,0.15,0.08,0.16c0.03,0.01,0.06,0.07,0.06,0.14c0,0.06,0.02,0.13,0.05,0.14c0.03,0.01,0.12,0.16,0.21,0.34
		c0.2,0.38,0.33,0.62,0.37,0.66c0.02,0.02,0.12,0.16,0.22,0.32c0.23,0.34,0.28,0.41,0.43,0.57c0.06,0.07,0.11,0.15,0.11,0.19
		c0,0.03,0.04,0.06,0.1,0.06c0.05,0,0.08,0.03,0.06,0.06c-0.02,0.03,0.08,0.17,0.22,0.31c0.14,0.14,0.25,0.28,0.25,0.31
		c0,0.14,1.96,1.88,1.96,1.75c0-0.03,0.03,0,0.06,0.06c0.03,0.06,0.1,0.1,0.14,0.09c0.04-0.01,0.06-0.01,0.03,0.01
		c-0.06,0.03,0.07,0.21,0.15,0.21c0.03,0,0.35,0.2,0.72,0.44c0.37,0.24,0.71,0.44,0.76,0.44c0.05,0,0.1,0.03,0.1,0.07
		c0,0.04,0.03,0.05,0.06,0.03c0.03-0.02,0.06-0.02,0.06,0.01c0,0.03,0.09,0.09,0.21,0.14c0.11,0.05,0.26,0.13,0.32,0.19
		c0.06,0.06,0.13,0.1,0.14,0.09c0.01-0.01,0.13,0.03,0.26,0.09c0.13,0.06,0.25,0.11,0.27,0.11c0.02,0,0.15,0.06,0.28,0.12
		c0.14,0.06,0.28,0.12,0.32,0.12c0.03,0.01,0.09,0.03,0.13,0.05c0.13,0.08,0.78,0.31,0.91,0.32c0.07,0.01,0.13,0.03,0.13,0.05
		c0,0.03,0.32,0.12,0.44,0.12c0.02,0,0.25,0.06,0.51,0.13c0.58,0.16,0.94,0.23,1.97,0.35c1.26,0.15,3.93,0.15,4.17,0
		c0.04-0.02,0.18-0.04,0.32-0.04c0.14,0,0.25-0.03,0.25-0.06c0-0.03,0.02-0.04,0.05-0.03c0.03,0.02,0.34-0.04,0.68-0.13
		c0.34-0.09,0.69-0.18,0.77-0.19c0.08-0.02,0.14-0.06,0.14-0.09c0-0.03,0.02-0.05,0.05-0.03c0.03,0.02,0.14-0.02,0.24-0.08
		c0.1-0.06,0.28-0.14,0.39-0.16c0.11-0.02,0.22-0.08,0.25-0.13c0.03-0.05,0.07-0.09,0.09-0.09c0.22-0.03,0.98-0.56,1.26-0.88
		c0.09-0.1,0.19-0.2,0.22-0.21c0.31-0.13,1.01-1.46,1.24-2.36c0.16-0.62,0.24-2.27,0.12-2.47c-0.02-0.03-0.04-0.11-0.05-0.16
		c-0.04-0.29-0.15-0.58-0.2-0.55c-0.02,0.01-0.05-0.06-0.05-0.16c0-0.1-0.05-0.22-0.09-0.25c-0.05-0.03-0.07-0.06-0.04-0.06
		c0.05,0-0.04-0.17-0.28-0.55c-0.09-0.15-0.17-0.29-0.17-0.33c0-0.03-0.02-0.07-0.05-0.08c-0.03-0.01-0.13-0.14-0.24-0.27
		c-0.24-0.32-0.42-0.54-0.53-0.63c-0.05-0.04-0.16-0.15-0.25-0.24c-0.09-0.1-0.2-0.17-0.25-0.17c-0.05,0-0.08-0.03-0.07-0.07
		c0.01-0.04-0.08-0.13-0.19-0.21c-0.11-0.07-0.22-0.18-0.24-0.24c-0.02-0.06-0.07-0.11-0.1-0.11s-0.19-0.1-0.34-0.23
		C49.09,56.1,48.95,56,48.93,56c-0.02,0-0.13-0.08-0.24-0.18c-0.11-0.1-0.23-0.19-0.26-0.19c-0.03,0-0.16-0.07-0.3-0.16
		c-0.14-0.09-0.25-0.14-0.25-0.12c0,0.02-0.05,0-0.11-0.05c-0.18-0.16-1.3-0.66-1.57-0.7c-0.07-0.01-0.24-0.07-0.37-0.13
		c-0.14-0.06-0.26-0.09-0.28-0.08c-0.02,0.02-0.08,0-0.14-0.03c-0.12-0.07-0.2-0.08-1.15-0.26c-0.37-0.07-0.77-0.12-0.89-0.12
		c-0.12,0-0.32,0-0.46,0c-0.33-0.01-1.23,0.05-1.29,0.09c-0.03,0.02-0.17,0.05-0.33,0.07c-0.15,0.02-0.34,0.07-0.41,0.11
		c-0.07,0.04-0.14,0.07-0.16,0.06c-0.08-0.02-0.36,0.08-0.54,0.19c-0.1,0.06-0.23,0.13-0.28,0.16c-0.36,0.16-1.09,0.77-1.03,0.86
		c0.02,0.04,0.01,0.05-0.02,0.03c-0.03-0.02-0.1,0.02-0.15,0.1c-0.05,0.07-0.13,0.18-0.19,0.24c-0.14,0.16-0.33,0.51-0.3,0.55
		c0.02,0.02-0.02,0.08-0.08,0.14c-0.06,0.06-0.16,0.34-0.22,0.61c-0.18,0.81-0.15,0.76-0.34,0.56c-0.29-0.29-1.29-1.07-1.35-1.06
		c-0.03,0.01-0.06-0.03-0.06-0.08c0-0.05-0.03-0.09-0.07-0.09c-0.04,0-0.16-0.08-0.27-0.19c-0.14-0.13-0.21-0.17-0.25-0.11
		c-0.03,0.06-0.05,0.05-0.05-0.02c0-0.09-0.22-0.25-0.79-0.6c-0.1-0.06-0.2-0.11-0.21-0.1c-0.01,0.01-0.04-0.01-0.06-0.04
		c-0.09-0.12-0.74-0.52-0.88-0.54c-0.03,0-0.12-0.06-0.21-0.12c-0.17-0.12-1.24-0.65-1.3-0.64c-0.02,0-0.13-0.04-0.24-0.1
		c-0.11-0.06-0.23-0.11-0.25-0.12c-0.03-0.01-0.06-0.02-0.08-0.03c-0.02-0.01-0.05-0.02-0.08-0.03c-0.03-0.01-0.16-0.06-0.29-0.12
		c-0.13-0.06-0.27-0.11-0.31-0.11c-0.03,0-0.04-0.05-0.02-0.11c0.02-0.06,0.05-0.14,0.05-0.17c0.01-0.03,0.03-0.08,0.05-0.09
		c0.02-0.02,0.1-0.16,0.18-0.32c0.08-0.16,0.21-0.38,0.3-0.49c0.08-0.11,0.13-0.24,0.11-0.28c-0.03-0.04-0.02-0.06,0.02-0.03
		c0.04,0.02,0.17-0.09,0.3-0.25c0.13-0.16,0.32-0.38,0.42-0.49c0.1-0.11,0.18-0.22,0.18-0.25c0-0.03,0.04-0.05,0.08-0.05
		c0.04,0,0.23-0.13,0.41-0.28c0.18-0.16,0.34-0.28,0.35-0.28s0.28-0.17,0.59-0.37c0.52-0.34,0.71-0.45,0.88-0.49
		c0.13-0.03,0.41-0.2,0.38-0.23c-0.02-0.02,0.03-0.03,0.11-0.02s0.28-0.04,0.46-0.11c0.17-0.07,0.51-0.16,0.75-0.21
		c0.24-0.05,0.46-0.1,0.49-0.12c0.03-0.02,0.18-0.05,0.33-0.06c0.15-0.02,0.36-0.05,0.46-0.07c0.29-0.06,1.56-0.07,2.01-0.02
		c0.34,0.04,0.6,0.08,1.57,0.22c0.09,0.01,0.24,0.05,0.33,0.09c0.09,0.04,0.17,0.05,0.17,0.03s0.09,0.01,0.21,0.06
		c0.11,0.05,0.32,0.11,0.45,0.13c0.13,0.03,0.29,0.07,0.35,0.1c0.15,0.07,0.91,0.33,1,0.33c0.04,0,0.08,0.03,0.08,0.05
		c0,0.06,0.45,0.19,0.53,0.15c0.03-0.02,0.04-0.01,0.02,0.03c-0.04,0.07,0.15,0.18,0.41,0.23c0.09,0.02,0.7,0.3,0.89,0.41
		c0.05,0.03,0.3,0.16,0.55,0.28c0.25,0.13,0.47,0.25,0.49,0.28c0.02,0.03,0.12,0.07,0.22,0.1c0.1,0.02,0.19,0.06,0.19,0.09
		c0,0.02,0.19,0.15,0.43,0.28c0.71,0.39,1.36,0.81,1.4,0.88c0.01,0.03,0.04,0.03,0.07,0.02c0.03-0.02,0.09,0.01,0.13,0.06
		c0.04,0.05,0.12,0.09,0.17,0.09c0.05,0,0.09,0.03,0.09,0.06c0,0.03,0.04,0.06,0.09,0.06c0.05,0,0.11,0.04,0.14,0.09
		c0.03,0.05,0.14,0.13,0.24,0.18c0.1,0.05,0.25,0.16,0.33,0.23c0.08,0.07,0.16,0.13,0.18,0.13c0.02,0,0.13,0.07,0.24,0.15
		c0.61,0.46,1.25,0.87,1.31,0.83c0.04-0.03,0.06-0.02,0.03,0.02c-0.04,0.06,0.16,0.27,0.25,0.27c0.02,0,0.16,0.1,0.3,0.21
		c0.14,0.12,0.32,0.24,0.4,0.28c0.08,0.04,0.18,0.11,0.22,0.16c0.18,0.18,0.93,0.67,0.96,0.63c0.02-0.02,0.04,0.01,0.04,0.07
		c0,0.06,0.04,0.11,0.08,0.11c0.04,0,0.12,0.06,0.17,0.13c0.05,0.07,0.13,0.13,0.17,0.13s0.08,0.02,0.08,0.05
		c0,0.03,0.1,0.11,0.22,0.17c0.12,0.07,0.22,0.13,0.22,0.15s0.11,0.1,0.25,0.19c0.14,0.09,0.25,0.18,0.25,0.21
		c0,0.03,0.04,0.05,0.08,0.05s0.12,0.06,0.17,0.12c0.05,0.07,0.11,0.11,0.14,0.09c0.03-0.02,0.05-0.01,0.05,0.02
		c0,0.08,0.4,0.3,0.5,0.28c0.05-0.01,0.07,0.01,0.05,0.04c-0.04,0.06,0.53,0.52,0.65,0.52c0.04,0,0.07,0.02,0.07,0.05
		c0,0.07,0.98,0.77,1.08,0.77c0.03,0,0.06,0.03,0.06,0.07c0,0.04,0.02,0.06,0.04,0.04c0.02-0.02,0.11,0.03,0.19,0.12
		c0.09,0.09,0.19,0.14,0.22,0.11c0.04-0.02,0.05-0.01,0.03,0.02c-0.04,0.06,0.25,0.24,0.35,0.22c0.03-0.01,0.05,0.02,0.05,0.05
		c0,0.03,0.05,0.08,0.11,0.09c0.06,0.02,0.18,0.1,0.27,0.19c0.09,0.08,0.22,0.17,0.3,0.19c0.08,0.02,0.18,0.08,0.22,0.13
		c0.17,0.17,1.07,0.66,1.13,0.62c0.04-0.02,0.05-0.01,0.03,0.02c-0.02,0.03,0.15,0.16,0.39,0.28c0.23,0.12,0.44,0.23,0.46,0.25
		c0.04,0.05,2.2,1.1,2.27,1.11c0.07,0.01,0.29,0.1,0.4,0.16c0.18,0.09,0.8,0.32,0.82,0.3c0.01-0.01,0.1,0.03,0.19,0.09
		c0.09,0.06,0.17,0.09,0.17,0.07c0-0.02,0.04-0.01,0.09,0.03c0.05,0.04,0.24,0.12,0.43,0.17c0.19,0.06,0.37,0.12,0.4,0.15
		c0.05,0.04,0.29,0.11,0.54,0.16c0.02,0,0.19,0.06,0.38,0.13c0.19,0.07,0.37,0.12,0.4,0.11c0.03-0.01,0.05,0.02,0.05,0.06
		s0.02,0.06,0.04,0.04c0.02-0.02,0.21,0.02,0.43,0.09c0.48,0.15,1.11,0.3,1.36,0.32c0.04,0,0.08,0.02,0.08,0.04
		c0,0.02,0.05,0.04,0.11,0.05c0.06,0,0.46,0.08,0.9,0.17c0.43,0.09,0.8,0.15,0.82,0.14c0.02-0.02,0.08,0,0.14,0.03
		c0.06,0.03,0.29,0.07,0.51,0.09c0.22,0.02,0.4,0.03,0.4,0.04c0,0,0.07,0.01,0.16,0.02c0.09,0.01,0.37,0.04,0.63,0.07
		c0.67,0.07,1.85,0.09,2.44,0.03c0.28-0.03,0.71-0.07,0.95-0.09c0.24-0.02,0.57-0.07,0.72-0.1c0.15-0.03,0.29-0.05,0.31-0.03
		c0.02,0.02,0.1,0,0.19-0.03c0.09-0.03,0.26-0.07,0.37-0.07c0.12,0,0.21-0.02,0.21-0.05c0-0.02,0.1-0.04,0.23-0.05
		c0.13-0.01,0.27-0.03,0.33-0.06c0.06-0.03,0.15-0.05,0.2-0.06c0.05-0.01,0.18-0.03,0.28-0.05c0.1-0.02,0.47-0.11,0.81-0.2
		c0.34-0.09,0.67-0.18,0.74-0.19c0.06-0.01,0.17-0.05,0.24-0.09c0.07-0.04,0.21-0.08,0.33-0.1c0.11-0.02,0.3-0.08,0.42-0.12
		c0.12-0.05,0.23-0.07,0.25-0.05c0.02,0.02,0.04,0,0.04-0.05c0-0.05,0.02-0.07,0.04-0.05c0.03,0.03,1.13-0.32,1.28-0.42
		c0.04-0.03,0.14-0.06,0.21-0.07c0.08-0.01,0.28-0.1,0.46-0.18c0.18-0.08,0.39-0.17,0.48-0.2c0.34-0.1,1.32-0.56,1.29-0.61
		c-0.02-0.03,0.01-0.03,0.07-0.01c0.05,0.02,0.18-0.01,0.27-0.08c0.1-0.06,0.19-0.12,0.21-0.12c0.11-0.02,0.68-0.3,0.82-0.41
		c0.1-0.07,0.2-0.13,0.24-0.13c0.09,0,1.18-0.63,1.26-0.73c0.04-0.05,0.08-0.07,0.1-0.06c0.06,0.06,2.73-1.67,3.05-1.96
		c0.04-0.04,0.27-0.2,0.51-0.37c1.31-0.89,1.69-1.18,1.63-1.27c-0.02-0.03-0.01-0.05,0.02-0.03c0.06,0.04,0.18-0.03,0.74-0.42
		c0.2-0.14,0.36-0.27,0.36-0.3c0-0.03,0.03-0.04,0.07-0.01c0.05,0.03,0.06,0.01,0.04-0.05c-0.03-0.07-0.01-0.09,0.06-0.08
		c0.06,0.01,0.15-0.03,0.21-0.09c0.16-0.14,0.22-0.19,0.78-0.59c0.28-0.2,0.58-0.42,0.66-0.5c0.09-0.08,0.17-0.14,0.19-0.14
		c0.08,0.02,0.44-0.31,0.4-0.37c-0.03-0.04,0-0.05,0.07-0.02c0.06,0.02,0.13,0.02,0.15-0.01c0.02-0.03,0.18-0.15,0.35-0.27
		c0.17-0.12,0.33-0.24,0.34-0.27c0.01-0.03,0.06-0.05,0.1-0.05s0.1-0.04,0.12-0.09c0.02-0.05,0.08-0.09,0.13-0.09
		c0.05,0,0.13-0.04,0.18-0.08c0.07-0.07,0.38-0.29,0.9-0.63c0.06-0.04,0.18-0.13,0.25-0.19c0.07-0.06,0.15-0.11,0.18-0.11
		c0.03,0,0.3-0.17,0.61-0.37c0.52-0.35,0.73-0.47,1.65-0.97c0.2-0.11,0.41-0.24,0.47-0.29c0.06-0.05,0.11-0.08,0.11-0.05
		c0,0.03,0.08-0.01,0.17-0.08c0.1-0.07,0.35-0.2,0.57-0.3c0.22-0.1,0.39-0.22,0.4-0.27c0-0.05,0.03-0.06,0.07-0.04
		c0.06,0.04,0.54-0.13,0.63-0.22c0.02-0.02,0.07-0.04,0.12-0.05c0.05-0.01,0.21-0.07,0.35-0.14c0.14-0.06,0.34-0.14,0.43-0.16
		c0.09-0.02,0.19-0.07,0.21-0.1c0.02-0.03,0.06-0.04,0.09-0.02c0.03,0.02,0.06,0.01,0.06-0.02c0-0.05,0.24-0.15,0.41-0.16
		c0.03,0,0.12-0.04,0.2-0.08c0.07-0.04,0.15-0.06,0.16-0.05c0.02,0.02,0.13-0.01,0.26-0.07c0.13-0.05,0.23-0.08,0.23-0.06
		c0,0.02,0.09-0.01,0.2-0.07c0.11-0.06,0.21-0.09,0.23-0.07c0.02,0.02,0.1,0.01,0.18-0.02c0.08-0.03,0.26-0.07,0.41-0.09
		c0.14-0.02,0.28-0.05,0.32-0.07c0.03-0.02,0.21-0.05,0.39-0.07c0.19-0.02,0.52-0.05,0.75-0.08c0.55-0.06,1.69-0.04,2.28,0.05
		c0.59,0.09,0.64,0.1,0.76,0.14c0.09,0.03,0.29,0.08,0.6,0.13c0.07,0.01,0.33,0.1,0.57,0.19c0.24,0.09,0.49,0.18,0.54,0.19
		c0.05,0.01,0.27,0.11,0.47,0.22c0.21,0.11,0.42,0.18,0.46,0.16c0.05-0.02,0.07-0.01,0.05,0.03c-0.04,0.06,0.29,0.32,0.4,0.32
		c0.04,0,0.07,0.03,0.07,0.07c0,0.04,0.03,0.05,0.06,0.03c0.03-0.02,0.06-0.02,0.06,0.01c0,0.06,0.39,0.31,0.46,0.29
		c0.02-0.01,0.06,0.04,0.08,0.1c0.02,0.06,0.15,0.19,0.29,0.3c0.28,0.21,0.3,0.23,0.56,0.54c0.51,0.6,0.69,0.85,0.77,1
		c0.05,0.09,0.1,0.18,0.12,0.2c0.03,0.03,0.38,0.74,0.38,0.78c0,0.01-0.21,0.1-0.46,0.19c-0.93,0.35-2.33,1.03-2.33,1.13
		c0,0.03-0.02,0.05-0.04,0.02c-0.02-0.02-0.12,0.02-0.22,0.09c-0.1,0.07-0.18,0.11-0.18,0.09c0-0.02-0.09,0.03-0.21,0.12
		c-0.12,0.09-0.23,0.14-0.25,0.12c-0.02-0.02-0.04-0.02-0.04,0.02c0,0.03-0.1,0.11-0.22,0.18c-0.12,0.07-0.22,0.14-0.22,0.17
		c0,0.03-0.04,0.05-0.09,0.05c-0.05,0-0.12,0.05-0.15,0.11c-0.03,0.06-0.07,0.1-0.08,0.08c-0.03-0.05-1,0.64-1.28,0.91
		c-0.13,0.13-0.26,0.23-0.29,0.23c-0.04,0-0.23,0.17-0.77,0.67c-0.13,0.12-0.16,0.08-0.21-0.35c-0.02-0.19-0.07-0.38-0.1-0.42
		c-0.03-0.04-0.05-0.09-0.03-0.11c0.04-0.04-0.33-0.83-0.48-1.02c-0.27-0.35-0.8-0.87-0.93-0.9c-0.08-0.02-0.13-0.05-0.12-0.07
		c0.05-0.05-0.35-0.31-0.51-0.34c-0.07-0.01-0.18-0.07-0.24-0.13c-0.11-0.1-0.28-0.14-0.43-0.12c-0.03,0-0.05-0.03-0.05-0.07
		s-0.02-0.06-0.04-0.04c-0.02,0.02-0.13,0-0.25-0.05c-0.31-0.13-1.15-0.22-1.93-0.21c-0.26,0-0.52,0.01-0.57,0.01
		c-0.1,0-0.56,0.07-1.23,0.19c-0.21,0.04-0.49,0.11-0.63,0.16c-0.14,0.05-0.27,0.09-0.28,0.09c-0.05-0.01-0.26,0.06-0.51,0.15
		c-0.48,0.19-0.53,0.2-0.64,0.22c-0.04,0-0.05,0.04-0.02,0.08c0.03,0.04,0.02,0.06-0.03,0.03c-0.11-0.07-1.95,0.89-2.1,1.09
		c-0.02,0.02-0.12,0.1-0.23,0.17c-0.48,0.3-1.55,1.33-1.88,1.8c-0.11,0.16-0.22,0.29-0.25,0.31c-0.08,0.03-0.4,0.53-0.49,0.77
		c-0.05,0.12-0.13,0.27-0.18,0.33c-0.05,0.06-0.07,0.11-0.05,0.11c0.02,0,0,0.09-0.05,0.19c-0.05,0.1-0.1,0.2-0.09,0.21
		c0,0.01-0.03,0.1-0.07,0.21c-0.26,0.67-0.24,2.63,0.03,3.07c0.02,0.03,0.05,0.12,0.07,0.19c0.02,0.07,0.04,0.19,0.06,0.26
		c0.02,0.07,0.06,0.17,0.1,0.22c0.04,0.05,0.06,0.09,0.04,0.09c-0.05,0,0.26,0.56,0.38,0.7c0.05,0.06,0.09,0.14,0.09,0.18
		c0,0.09,1.26,1.36,1.31,1.31c0.02-0.02,0.09,0.02,0.16,0.09c0.19,0.18,1.56,0.83,1.74,0.83c0.03,0,0.1,0.02,0.15,0.05
		c0.06,0.03,0.18,0.07,0.28,0.09c0.25,0.05,0.37,0.08,0.37,0.09c0,0.01,0.27,0.06,0.47,0.09c0.09,0.01,0.16,0.03,0.16,0.03
		c0,0.02,0.26,0.05,1.39,0.16c1.15,0.11,2.56,0.07,3.8-0.12c0.1-0.02,0.3-0.05,0.44-0.07c0.14-0.02,0.3-0.05,0.37-0.07
		c0.06-0.02,0.22-0.05,0.35-0.06c0.21-0.02,0.51-0.11,1.06-0.29c0.1-0.03,0.23-0.07,0.28-0.08c0.2-0.03,0.48-0.12,0.55-0.18
		c0.04-0.03,0.13-0.07,0.19-0.08c0.58-0.11,2.92-1.3,2.84-1.43c-0.02-0.03,0.01-0.04,0.05-0.02c0.09,0.03,0.4-0.14,0.74-0.41
		c0.09-0.07,0.18-0.13,0.21-0.13c0.05,0,0.24-0.15,0.46-0.36c0.08-0.08,0.16-0.12,0.18-0.1c0.02,0.02,0.07-0.03,0.12-0.1
		c0.05-0.07,0.11-0.13,0.15-0.13c0.04,0,0.11-0.05,0.16-0.11c0.05-0.06,0.16-0.15,0.24-0.2c0.08-0.05,0.14-0.15,0.14-0.21
		c0-0.07,0.03-0.1,0.07-0.07c0.05,0.03,0.97-0.84,1.23-1.18c0.16-0.21,0.7-0.94,0.77-1.04c0.04-0.06,0.17-0.26,0.29-0.43
		c0.11-0.17,0.27-0.43,0.33-0.57c0.07-0.14,0.18-0.35,0.26-0.47c0.07-0.12,0.16-0.29,0.18-0.38c0.03-0.09,0.11-0.29,0.18-0.44
		c0.07-0.16,0.18-0.41,0.22-0.57c0.05-0.16,0.11-0.31,0.14-0.35c0.03-0.04,0.06-0.14,0.08-0.22c0.02-0.09,0.08-0.31,0.13-0.5
		c0.19-0.68,0.35-1.92,0.33-2.42c-0.02-0.41-0.08-0.38,0.75-0.46c1.45-0.15,2.78-0.12,3.67,0.1c0.83,0.2,1.99,0.67,2.31,0.94
		c0.05,0.04,0.12,0.08,0.14,0.08c0.13,0.01,1.44,1.3,1.44,1.41c0,0.03,0.07,0.15,0.15,0.25c0.31,0.42,0.67,1.33,0.62,1.6
		c-0.01,0.04,0.02,0.08,0.05,0.08c0.14,0,0.02,1.69-0.13,1.98c-0.04,0.07-0.04,0.11-0.01,0.09c0.37-0.23-0.81,1.49-1.33,1.95
		c-0.19,0.17-0.33,0.33-0.31,0.37c0.03,0.04,0,0.05-0.07,0.02c-0.07-0.03-0.16,0.01-0.24,0.08c-0.18,0.17-0.19,0.17-0.35-0.19
		c-0.09-0.19-0.18-0.32-0.25-0.32c-0.06,0-0.09-0.02-0.06-0.04c0.15-0.15-0.48-0.4-0.98-0.4c-1.62,0-1.9,2.43-0.32,2.77
		c0.38,0.08,1.24-0.09,1.35-0.26c0.03-0.04,0.05-0.05,0.05-0.02c0,0.05,0.47-0.2,0.88-0.49c0.31-0.21,1.4-1.24,1.4-1.31
		c0-0.03,0.08-0.14,0.17-0.24s0.17-0.23,0.17-0.27c0-0.04,0.07-0.14,0.15-0.23c0.12-0.13,0.53-0.88,0.55-1.01
		c0-0.02,0.04-0.12,0.09-0.22c0.04-0.1,0.08-0.25,0.09-0.33c0.01-0.08,0.03-0.14,0.05-0.14c0.04,0,0.07-0.1,0.14-0.47
		c0.01-0.07,0.05-0.25,0.09-0.4c0.07-0.3,0.05-1.67-0.02-2.03c-0.13-0.65-0.63-1.74-0.75-1.67c-0.04,0.02-0.04,0.01-0.02-0.04
		c0.06-0.09-0.15-0.34-0.24-0.28c-0.04,0.02-0.05,0.01-0.02-0.03c0.02-0.04,0.02-0.11-0.02-0.15c-0.24-0.29-0.38-0.43-0.44-0.43
		c-0.04,0-0.06-0.03-0.04-0.06c0.02-0.03,0.01-0.06-0.03-0.06c-0.04,0-0.12-0.05-0.18-0.11c-0.12-0.12-0.78-0.61-0.84-0.63
		c-0.2-0.05-0.32-0.11-0.32-0.16c0-0.03-0.11-0.1-0.24-0.16c-0.13-0.05-0.35-0.15-0.49-0.21c-0.26-0.12-0.95-0.35-0.95-0.32
		c0,0.01-0.09-0.02-0.19-0.06c-0.94-0.37-3.42-0.53-4.55-0.28c-1.04,0.22-1.01,0.24-1.21-0.63c-0.16-0.71-0.42-1.41-0.59-1.58
		c-0.03-0.03-0.05-0.07-0.05-0.09c0-0.08-0.48-0.9-0.56-0.94c-0.04-0.03-0.12-0.13-0.17-0.24c-0.06-0.1-0.14-0.18-0.19-0.17
		c-0.05,0.01-0.07,0-0.04-0.03c0.07-0.07-0.08-0.22-0.16-0.17c-0.04,0.02-0.05,0.01-0.02-0.03c0.05-0.09-0.81-0.97-1.1-1.12
		c-0.11-0.06-0.2-0.13-0.2-0.16c0-0.03-0.04-0.06-0.09-0.06c-0.05,0-0.09-0.03-0.09-0.06c0-0.03-0.06-0.08-0.13-0.1
		c-0.07-0.02-0.16-0.07-0.21-0.12c-0.1-0.1-0.51-0.33-0.87-0.5c-0.16-0.07-0.43-0.2-0.6-0.28c-0.17-0.08-0.49-0.19-0.7-0.25
		c-0.21-0.06-0.43-0.13-0.49-0.16c-0.06-0.03-0.23-0.08-0.37-0.09c-0.14-0.02-0.29-0.05-0.32-0.07c-0.38-0.24-4.25-0.34-4.61-0.12
		c-0.02,0.01-0.18,0.04-0.36,0.06c-0.18,0.02-0.41,0.07-0.5,0.1c-0.1,0.04-0.18,0.06-0.19,0.06c-0.08-0.02-0.51,0.1-1.13,0.31
		c-0.28,0.1-0.53,0.16-0.55,0.14c-0.02-0.02-0.04-0.01-0.04,0.03c0,0.03-0.04,0.06-0.08,0.06s-0.21,0.06-0.36,0.13
		c-0.26,0.12-0.49,0.22-0.56,0.24c-0.12,0.03-1.18,0.56-1.2,0.6c-0.02,0.03-0.1,0.07-0.19,0.1c-0.09,0.03-0.21,0.09-0.27,0.15
		c-0.06,0.05-0.11,0.08-0.11,0.05c0-0.02-0.12,0.04-0.27,0.14c-0.15,0.1-0.39,0.25-0.54,0.33c-0.15,0.08-0.27,0.17-0.27,0.2
		c0,0.03-0.03,0.04-0.06,0.02c-0.03-0.02-0.06-0.01-0.06,0.03c0,0.04-0.03,0.07-0.06,0.07c-0.12,0-1.13,0.72-1.09,0.78
		c0.02,0.03,0,0.04-0.04,0.01c-0.04-0.03-0.19,0.04-0.34,0.17c-0.15,0.12-0.33,0.25-0.4,0.29c-0.08,0.04-0.18,0.11-0.22,0.15
		c-0.05,0.04-0.18,0.15-0.31,0.24c-0.12,0.08-0.26,0.19-0.3,0.23c-0.04,0.04-0.17,0.13-0.27,0.19c-0.1,0.06-0.19,0.14-0.19,0.18
		c0,0.04-0.08,0.1-0.17,0.14s-0.26,0.16-0.37,0.25c-0.26,0.23-0.56,0.47-0.89,0.72c-0.15,0.11-0.27,0.23-0.27,0.25
		c0,0.03-0.04,0.05-0.08,0.05c-0.04,0-0.17,0.1-0.28,0.22c-0.11,0.12-0.22,0.2-0.25,0.17c-0.03-0.02-0.03,0.01-0.01,0.06
		c0.03,0.07,0.01,0.1-0.04,0.08c-0.04-0.02-0.14,0.02-0.2,0.08c-0.07,0.06-0.25,0.21-0.41,0.33c-0.38,0.3-0.4,0.31-0.72,0.6
		c-0.15,0.14-0.4,0.34-0.54,0.44c-0.14,0.1-0.26,0.21-0.26,0.24c0,0.03-0.03,0.05-0.07,0.05c-0.11,0-0.69,0.52-0.65,0.58
		c0.02,0.03,0.01,0.05-0.03,0.04c-0.07-0.02-0.86,0.54-1.07,0.75c-0.07,0.08-0.16,0.12-0.18,0.1c-0.03-0.02-0.03,0.01-0.01,0.07
		c0.02,0.07,0.02,0.1-0.02,0.07c-0.03-0.02-0.29,0.13-0.57,0.34c-0.28,0.21-0.53,0.38-0.57,0.38c-0.1,0-0.08-0.11,0.03-0.15
		c0.05-0.02,0.08-0.07,0.06-0.1s-0.01-0.06,0.03-0.06c0.04,0,0.07-0.04,0.07-0.09c0-0.05,0.04-0.09,0.08-0.09
		c0.1,0,0.37-0.47,0.31-0.54c-0.03-0.03-0.01-0.03,0.03-0.01c0.09,0.05,0.43-0.43,0.38-0.52c-0.02-0.03-0.01-0.08,0.04-0.11
		c0.05-0.03,0.06-0.02,0.03,0.04c-0.03,0.05,0.01,0.02,0.08-0.07c0.07-0.09,0.19-0.29,0.27-0.44c0.08-0.16,0.16-0.3,0.18-0.32
		c0.09-0.07,0.43-0.81,0.39-0.85c-0.02-0.02-0.01-0.04,0.03-0.04c0.09,0,0.47-0.81,0.42-0.89c-0.02-0.03-0.01-0.05,0.03-0.04
		c0.04,0.01,0.12-0.11,0.18-0.27c0.06-0.16,0.17-0.41,0.24-0.57c0.17-0.39,0.27-0.64,0.3-0.79c0.02-0.11,0.14-0.46,0.47-1.45
		c0.03-0.1,0.05-0.21,0.03-0.24c-0.02-0.03-0.01-0.05,0.02-0.05c0.03,0,0.06-0.05,0.07-0.11c0.01-0.11,0.06-0.34,0.08-0.4
		c0.01-0.02,0.01-0.05,0.01-0.08c0-0.03,0.02-0.12,0.05-0.2c0.06-0.15,0.13-0.56,0.15-0.81c0-0.06,0.03-0.11,0.05-0.11
		c0.02,0,0.04-0.08,0.05-0.17c0-0.1,0.02-0.27,0.04-0.4c0.17-1.1,0.21-1.76,0.19-3.42c-0.02-1.49-0.05-2.13-0.13-2.63
		c-0.02-0.1-0.04-0.28-0.06-0.38c-0.07-0.57-0.27-1.58-0.48-2.37c-0.04-0.16-0.08-0.33-0.09-0.39c-0.01-0.06-0.05-0.16-0.09-0.23
		c-0.04-0.07-0.05-0.14-0.03-0.16c0.02-0.02-0.01-0.12-0.07-0.23c-0.06-0.11-0.1-0.22-0.1-0.24c0-0.03-0.04-0.15-0.09-0.27
		c-0.05-0.12-0.21-0.53-0.35-0.91c-0.22-0.58-0.46-1.1-0.99-2.16c-0.16-0.33-0.2-0.38-0.27-0.37c-0.04,0.01-0.05-0.04-0.04-0.11
		c0.01-0.07-0.02-0.14-0.07-0.16c-0.05-0.02-0.08-0.06-0.06-0.09c0.02-0.03-0.01-0.08-0.06-0.1c-0.05-0.03-0.09-0.07-0.09-0.08
		c0.01-0.09-0.09-0.32-0.14-0.32c-0.03,0-0.06-0.03-0.06-0.06c0-0.08-0.57-0.92-0.64-0.94c-0.03-0.01-0.04-0.05-0.02-0.08
		c0.02-0.03,0.01-0.06-0.03-0.06c-0.03,0-0.13-0.11-0.21-0.25c-0.08-0.14-0.17-0.25-0.19-0.25c-0.03,0-0.05-0.03-0.05-0.07
		c0-0.04-0.07-0.14-0.16-0.22c-0.09-0.08-0.16-0.17-0.16-0.2c0-0.03-0.06-0.11-0.14-0.19c-0.08-0.07-0.26-0.27-0.4-0.43
		c-0.34-0.4-1.65-1.71-2-2c-0.15-0.13-0.46-0.38-0.69-0.57c-0.59-0.49-0.93-0.75-0.98-0.75c-0.02,0-0.08-0.03-0.12-0.06
		c-0.22-0.18-0.72-0.53-0.89-0.63c-0.43-0.25-0.71-0.41-0.74-0.44c-0.02-0.02-0.17-0.11-0.35-0.19c-0.17-0.09-0.37-0.2-0.43-0.25
		c-0.06-0.05-0.14-0.09-0.16-0.09c-0.06,0.01-0.34-0.11-0.52-0.23c-0.09-0.06-0.21-0.1-0.27-0.09c-0.06,0.01-0.1,0-0.08-0.02
		c0.03-0.03-0.21-0.17-0.41-0.24c-0.02-0.01-0.17-0.08-0.35-0.15c-0.54-0.24-2.33-0.82-3.07-0.98c-1.26-0.28-1.58-0.34-2.03-0.39
		c-0.12-0.01-0.32-0.04-0.44-0.06C77.49,22.53,74.07,22.42,74,22.5 M77.14,24.26c0.19,0.03,0.76,0.1,1.15,0.13
		c0.11,0.01,0.29,0.04,0.39,0.06c0.1,0.02,0.27,0.05,0.38,0.07c0.11,0.01,0.6,0.13,1.1,0.26c0.5,0.13,0.93,0.24,0.97,0.24
		c0.13,0.03,0.39,0.11,0.6,0.19c0.28,0.11,0.44,0.16,0.46,0.15c0.01-0.01,0.1,0.04,0.21,0.09c0.1,0.06,0.42,0.19,0.7,0.3
		c0.28,0.11,0.75,0.33,1.05,0.48c0.3,0.15,0.57,0.28,0.61,0.28c0.04,0,0.1,0.04,0.15,0.1c0.05,0.05,0.17,0.14,0.28,0.19
		c0.11,0.05,0.25,0.13,0.32,0.17c0.74,0.47,1.06,0.68,1.34,0.89c0.18,0.13,0.33,0.22,0.33,0.2c0-0.02,0.06,0.03,0.14,0.11
		c0.28,0.3,0.74,0.63,0.81,0.59c0.04-0.02,0.06-0.02,0.05,0.01c-0.03,0.09,0.41,0.53,0.5,0.5c0.04-0.02,0.08,0,0.07,0.03
		c-0.02,0.08,0.9,1.01,1,1.01c0.05,0,0.07,0.04,0.05,0.09c-0.02,0.05,0.02,0.11,0.1,0.13c0.07,0.02,0.12,0.06,0.12,0.09
		c-0.02,0.07,0.5,0.64,0.55,0.61c0.02-0.02,0.03-0.01,0.01,0.01c-0.02,0.02,0.06,0.16,0.18,0.3c0.12,0.14,0.4,0.53,0.64,0.86
		c0.24,0.33,0.45,0.62,0.47,0.63s0.09,0.14,0.16,0.27c0.07,0.13,0.14,0.24,0.17,0.24c0.03,0,0.05,0.04,0.05,0.08
		c0,0.11,0.29,0.49,0.34,0.45c0.02-0.02,0.03,0.02,0.01,0.09c-0.01,0.07,0.07,0.27,0.19,0.45C92.9,34.79,93,34.95,93,34.97
		c0,0.02,0.02,0.09,0.04,0.16c0.02,0.07,0.06,0.11,0.1,0.09c0.04-0.02,0.05-0.01,0.02,0.03c-0.02,0.04,0.07,0.31,0.2,0.6
		c0.14,0.29,0.3,0.67,0.36,0.85c0.06,0.18,0.14,0.31,0.17,0.29c0.03-0.02,0.05,0,0.04,0.05c-0.01,0.05,0.02,0.21,0.07,0.37
		c0.04,0.16,0.08,0.3,0.08,0.32c0,0.02,0.06,0.14,0.12,0.28c0.07,0.13,0.09,0.22,0.05,0.2c-0.05-0.03-0.06-0.01-0.01,0.07
		c0.09,0.15,0.37,1.28,0.51,2.02c0.1,0.55,0.21,1.3,0.26,1.74c0.04,0.4,0.04,3.59-0.01,3.86c-0.03,0.19-0.07,0.47-0.08,0.63
		c-0.02,0.16-0.05,0.36-0.07,0.44c-0.09,0.41-0.12,0.61-0.11,0.67c0.01,0.04-0.03,0.19-0.08,0.34c-0.05,0.15-0.08,0.29-0.07,0.3
		c0.02,0.02,0.01,0.08-0.02,0.13c-0.05,0.09-0.14,0.5-0.15,0.69c0,0.04-0.03,0.08-0.07,0.08c-0.03,0-0.05,0.02-0.02,0.04
		c0.02,0.02,0.01,0.09-0.02,0.15c-0.06,0.11-0.13,0.39-0.14,0.56c0,0.04-0.02,0.08-0.04,0.08c-0.02,0-0.08,0.14-0.12,0.3
		c-0.05,0.17-0.2,0.59-0.33,0.93c-0.14,0.35-0.26,0.68-0.26,0.75c-0.01,0.06-0.04,0.13-0.08,0.16c-0.11,0.07-0.51,0.92-0.49,1.04
		c0.01,0.06-0.02,0.1-0.05,0.09c-0.04-0.01-0.14,0.13-0.23,0.3c-0.2,0.38-0.69,1.17-0.81,1.28c-0.05,0.05-0.07,0.11-0.05,0.14
		c0.02,0.03,0.01,0.06-0.03,0.06c-0.03,0-0.16,0.15-0.29,0.34c-0.13,0.19-0.27,0.39-0.33,0.44c-0.05,0.05-0.08,0.1-0.06,0.1
		s-0.03,0.07-0.12,0.15c-0.09,0.08-0.16,0.18-0.16,0.22c0,0.04-0.02,0.07-0.05,0.07c-0.08,0-0.58,0.64-0.54,0.7
		c0.02,0.03-0.01,0.04-0.06,0.02c-0.05-0.02-0.1-0.01-0.1,0.03c0,0.04-0.14,0.21-0.32,0.38c-0.18,0.17-0.3,0.35-0.28,0.38
		c0.02,0.04,0,0.05-0.05,0.03c-0.1-0.04-0.44,0.31-0.37,0.39c0.02,0.03,0.01,0.03-0.03,0.01c-0.04-0.02-0.25,0.13-0.47,0.35
		c-0.22,0.21-0.42,0.38-0.43,0.37c-0.04-0.03-0.33,0.25-0.33,0.32c0,0.04-0.02,0.05-0.05,0.04c-0.03-0.02-0.12,0.03-0.21,0.11
		s-0.25,0.21-0.36,0.29c-0.11,0.08-0.19,0.18-0.16,0.21c0.03,0.04,0.01,0.05-0.03,0.02c-0.05-0.03-0.23,0.06-0.45,0.21
		c-0.2,0.14-0.4,0.26-0.44,0.26c-0.04,0-0.07,0.02-0.07,0.05s-0.11,0.1-0.24,0.16s-0.3,0.16-0.38,0.24
		c-0.08,0.07-0.14,0.12-0.14,0.1c0-0.02-0.09,0.02-0.21,0.09c-0.31,0.19-1.41,0.72-1.98,0.95c-0.28,0.11-0.58,0.24-0.66,0.27
		c-0.09,0.04-0.17,0.07-0.19,0.07c-0.15,0.03-0.8,0.26-0.82,0.28c-0.03,0.04-0.17,0.08-0.32,0.09c-0.05,0.01-0.12,0.03-0.16,0.05
		c-0.05,0.03-0.31,0.1-0.79,0.21c-0.02,0-0.17,0.03-0.35,0.06c-0.17,0.03-0.34,0.07-0.38,0.09c-0.03,0.02-0.11,0.05-0.16,0.05
		c-0.3,0.05-0.63,0.1-1.17,0.18c-1.06,0.16-2.82,0.22-3.82,0.14c-0.84-0.07-1.36-0.12-1.47-0.15c-0.05-0.01-0.25-0.04-0.43-0.06
		c-0.19-0.02-0.36-0.05-0.39-0.07c-0.03-0.02-0.16-0.05-0.3-0.06c-0.13-0.01-0.32-0.06-0.42-0.09c-0.1-0.04-0.2-0.05-0.23-0.03
		c-0.03,0.02-0.07,0.01-0.09-0.02c-0.02-0.03-0.14-0.06-0.27-0.07c-0.13-0.01-0.25-0.04-0.27-0.07c-0.03-0.05-0.28-0.13-0.51-0.17
		c-0.15-0.03-1.09-0.35-1.3-0.45c-0.1-0.05-0.26-0.1-0.35-0.11c-0.09-0.01-0.21-0.07-0.28-0.13c-0.07-0.06-0.16-0.11-0.2-0.11
		c-0.08,0-0.38-0.13-0.74-0.32c-0.13-0.07-0.28-0.12-0.33-0.12c-0.05,0-0.1-0.03-0.1-0.06c0-0.03-0.06-0.08-0.14-0.1
		c-0.08-0.02-0.22-0.1-0.32-0.17c-0.1-0.07-0.17-0.1-0.17-0.08c0,0.02-0.05,0.01-0.1-0.04c-0.06-0.05-0.15-0.11-0.22-0.15
		c-0.06-0.04-0.32-0.19-0.58-0.33c-0.26-0.15-0.54-0.32-0.62-0.39c-0.39-0.32-0.76-0.57-0.76-0.52c0,0.03-0.03,0-0.07-0.06
		c-0.04-0.06-0.1-0.11-0.15-0.11c-0.05,0-0.1-0.05-0.12-0.1c-0.02-0.06-0.08-0.09-0.13-0.07c-0.06,0.02-0.08,0-0.06-0.06
		c0.02-0.05,0.01-0.09-0.02-0.09c-0.03,0-0.16-0.1-0.29-0.21c-0.13-0.12-0.23-0.2-0.23-0.18c0,0.02-0.09-0.06-0.21-0.18
		c-0.11-0.12-0.32-0.32-0.46-0.45c-0.14-0.13-0.41-0.39-0.6-0.59c-0.19-0.19-0.37-0.35-0.4-0.35c-0.03,0-0.05-0.04-0.05-0.08
		c0-0.05-0.09-0.17-0.21-0.28c-0.32-0.31-0.55-0.58-0.55-0.66c0-0.04-0.04-0.05-0.1-0.03c-0.05,0.02-0.08,0.01-0.06-0.02
		c0.02-0.03-0.14-0.31-0.36-0.61c-0.64-0.89-0.72-1-0.9-1.31c-0.1-0.17-0.2-0.28-0.24-0.26c-0.04,0.02-0.05,0.01-0.02-0.03
		c0.03-0.04-0.04-0.22-0.14-0.41c-0.26-0.46-0.43-0.77-0.5-0.91c-0.03-0.07-0.11-0.21-0.16-0.32c-0.06-0.11-0.08-0.21-0.06-0.24
		c0.02-0.02,0.01-0.04-0.03-0.04c-0.04,0-0.07-0.05-0.07-0.12c0-0.06-0.06-0.2-0.14-0.3c-0.08-0.1-0.11-0.16-0.06-0.13
		c0.06,0.03,0.05,0-0.01-0.13c-0.2-0.41-0.38-0.87-0.45-1.16c0-0.02-0.04-0.12-0.09-0.22c-0.04-0.1-0.12-0.35-0.16-0.54
		c-0.05-0.19-0.13-0.51-0.19-0.7c-0.06-0.19-0.11-0.41-0.12-0.47s-0.04-0.18-0.06-0.25c-0.06-0.18-0.1-0.46-0.15-0.87
		c-0.02-0.2-0.06-0.36-0.08-0.36s-0.04-0.08-0.05-0.17c-0.02-0.5-0.1-1.37-0.13-1.42c-0.04-0.07-0.05-2.55,0-2.63
		c0.02-0.03,0.05-0.33,0.07-0.67c0.02-0.34,0.07-0.71,0.1-0.81c0.03-0.11,0.04-0.22,0.03-0.24c-0.02-0.02,0.01-0.21,0.06-0.42
		c0.05-0.21,0.12-0.54,0.17-0.75c0.08-0.4,0.2-0.86,0.32-1.26c0.04-0.13,0.08-0.3,0.1-0.37c0.04-0.23,0.17-0.58,0.23-0.64
		c0.03-0.03,0.06-0.11,0.06-0.18s0.03-0.16,0.06-0.22c0.03-0.06,0.08-0.18,0.12-0.27c0.03-0.09,0.14-0.33,0.24-0.55
		c0.1-0.22,0.18-0.44,0.18-0.49c0-0.05,0.02-0.08,0.05-0.07c0.06,0.04,0.14-0.28,0.08-0.37c-0.02-0.04-0.02-0.06,0.01-0.03
		c0.04,0.04,0.3-0.3,0.3-0.4c0-0.02,0.07-0.14,0.15-0.27c0.08-0.13,0.15-0.26,0.15-0.28c0-0.02,0.17-0.31,0.38-0.63
		c0.21-0.32,0.36-0.6,0.34-0.62c-0.02-0.02-0.01-0.04,0.02-0.04c0.03,0,0.2-0.21,0.37-0.46c0.17-0.25,0.33-0.47,0.35-0.49
		c0.12-0.1,0.43-0.59,0.4-0.64c-0.02-0.03,0.01-0.04,0.06-0.02c0.05,0.02,0.1,0.01,0.1-0.02c0-0.08,0.41-0.55,1.09-1.25
		c0.34-0.35,0.6-0.66,0.58-0.69c-0.02-0.03-0.01-0.05,0.02-0.04c0.05,0.01,1.2-0.89,1.63-1.27c0.07-0.06,0.32-0.24,0.55-0.4
		c0.23-0.16,0.4-0.31,0.38-0.33c-0.02-0.02-0.02-0.03,0.02-0.02c0.08,0.03,0.79-0.38,0.79-0.46c0-0.03,0.04-0.06,0.09-0.06
		c0.1,0,0.58-0.25,0.86-0.45c0.09-0.06,0.17-0.11,0.19-0.11c0.02,0,0.27-0.11,0.57-0.25c0.3-0.14,0.69-0.32,0.89-0.4
		c0.19-0.08,0.43-0.18,0.54-0.22c0.27-0.12,1.53-0.53,1.71-0.56c0.09-0.02,0.18-0.04,0.21-0.06c0.03-0.02,0.14-0.05,0.24-0.07
		c0.1-0.02,0.58-0.11,1.07-0.22c0.49-0.1,0.91-0.19,0.95-0.18c0.03,0.01,0.31-0.02,0.6-0.07C73.98,24.19,76.48,24.16,77.14,24.26
		 M69.1,31.79c-0.02,0.03-0.06,0.03-0.09,0.01c-0.06-0.04-0.98,0.12-1.34,0.23c-0.12,0.04-0.27,0.08-0.35,0.09
		c-0.08,0.02-0.22,0.06-0.32,0.1c-0.1,0.04-0.19,0.08-0.21,0.08c-0.2,0.05-0.7,0.32-0.7,0.37c0,0.04-0.02,0.05-0.04,0.02
		c-0.02-0.02-0.11,0-0.19,0.05c-0.08,0.05-0.15,0.08-0.15,0.06c0-0.08-1.05,0.65-1.31,0.91c-0.08,0.08-0.15,0.13-0.15,0.11
		c0-0.02-0.21,0.16-0.47,0.41c-0.26,0.25-0.46,0.47-0.44,0.5c0.02,0.03-0.02,0.07-0.09,0.09c-0.06,0.02-0.16,0.11-0.2,0.19
		c-0.05,0.09-0.1,0.16-0.13,0.16s-0.13,0.12-0.23,0.27c-0.1,0.15-0.2,0.28-0.21,0.3c-0.13,0.13-0.46,0.62-0.71,1.08
		c-0.17,0.3-0.33,0.58-0.36,0.63c-0.03,0.05-0.12,0.22-0.19,0.38C61.15,38,61.05,38.21,61,38.31c-0.05,0.1-0.09,0.21-0.09,0.23
		s-0.06,0.19-0.14,0.35c-0.08,0.17-0.14,0.33-0.15,0.37c-0.01,0.03-0.03,0.12-0.06,0.19c-0.14,0.35-0.26,0.84-0.24,0.93
		c0.01,0.03-0.01,0.05-0.05,0.05c-0.03,0-0.06,0.05-0.05,0.11c0,0.06-0.04,0.34-0.1,0.62c-0.27,1.34-0.33,2.95-0.14,3.87
		c0.02,0.1,0.05,0.24,0.06,0.31c0.07,0.45,0.13,0.68,0.24,1.04c0.07,0.23,0.16,0.47,0.2,0.54c0.04,0.07,0.07,0.14,0.08,0.16
		c0.05,0.22,0.11,0.38,0.15,0.38c0.02,0,0.11,0.16,0.2,0.35c0.08,0.19,0.18,0.35,0.2,0.35c0.03,0,0.05,0.04,0.05,0.08
		c0,0.18,1.27,1.52,1.51,1.6c0.07,0.02,0.13,0.07,0.13,0.1c0,0.03,0.03,0.06,0.07,0.06c0.04,0,0.19,0.08,0.33,0.18
		c0.36,0.25,0.86,0.47,0.94,0.41c0.04-0.02,0.05-0.02,0.03,0.02c-0.04,0.06,0.56,0.26,1.19,0.39c0.48,0.1,1.36,0.1,1.36,0
		c0-0.07,0.01-0.07,0.05,0c0.08,0.13,1.07,0.03,1.27-0.14c0.07-0.06,0.08-0.05,0.04,0.02c-0.04,0.06-0.03,0.08,0.04,0.06
		c0.05-0.02,0.25-0.08,0.45-0.14c0.2-0.06,0.36-0.13,0.36-0.16s0.04-0.05,0.08-0.05c0.13,0.01,0.64-0.17,0.73-0.26
		c0.05-0.04,0.12-0.08,0.17-0.08s0.12-0.04,0.16-0.09c0.04-0.05,0.1-0.09,0.12-0.08c0.07,0.02,0.39-0.16,0.39-0.21
		c0-0.03,0.02-0.05,0.05-0.04c0.08,0.02,0.46-0.2,0.46-0.27c0-0.04,0.02-0.05,0.05-0.03c0.03,0.02,0.09-0.02,0.14-0.09
		c0.05-0.07,0.11-0.12,0.14-0.12c0.13,0,1.91-1.76,1.97-1.95c0.05-0.15,0.23-0.24,0.23-0.11c0,0.05,0.04,0.12,0.09,0.16
		c0.05,0.04,0.11,0.16,0.13,0.25c0.02,0.1,0.09,0.23,0.15,0.3c0.06,0.07,0.16,0.22,0.23,0.34c0.14,0.25,0.55,0.77,0.8,1.01
		c0.34,0.33,0.83,0.73,0.99,0.82c0.1,0.05,0.26,0.16,0.36,0.23c0.52,0.37,1.74,0.86,2.34,0.94c0.07,0.01,0.25,0.05,0.41,0.08
		c0.74,0.16,2.66,0.13,3.12-0.05c0.09-0.04,0.17-0.05,0.17-0.04c0,0.02,0.11-0.01,0.24-0.06c0.13-0.05,0.27-0.07,0.32-0.06
		c0.04,0.02,0.08-0.01,0.08-0.05c0-0.04,0.02-0.06,0.04-0.04c0.02,0.02,0.14,0,0.27-0.06c0.13-0.05,0.28-0.11,0.33-0.12
		c0.21-0.04,1.23-0.58,1.66-0.87c0.36-0.24,1.25-1.03,1.53-1.35c0.17-0.2,0.37-0.41,0.43-0.47c0.06-0.06,0.11-0.13,0.11-0.17
		c0-0.04,0.09-0.16,0.19-0.28c0.1-0.12,0.17-0.24,0.15-0.27c-0.02-0.03-0.01-0.06,0.02-0.06c0.03,0,0.11-0.1,0.18-0.22
		c0.07-0.12,0.14-0.22,0.17-0.22c0.03,0,0.05-0.03,0.05-0.07s0.11-0.3,0.25-0.58c0.14-0.28,0.25-0.56,0.25-0.62
		c0-0.06,0.02-0.13,0.06-0.15c0.05-0.03,0.09-0.19,0.14-0.46c0.02-0.15,0.14-0.27,0.27-0.27c0.08,0,0.18-0.03,0.22-0.08
		c0.04-0.04,0.08-0.06,0.08-0.03s0.16-0.03,0.35-0.11c0.19-0.09,0.36-0.15,0.36-0.15c0.06,0.01,0.36-0.14,0.39-0.19
		c0.02-0.04,0.07-0.05,0.1-0.03c0.03,0.02,0.07,0,0.09-0.03c0.02-0.04,0.13-0.1,0.24-0.15c0.11-0.05,0.25-0.13,0.31-0.19
		c0.06-0.06,0.15-0.12,0.19-0.12c0.12-0.02,0.51-0.36,0.41-0.36c-0.05,0,0-0.05,0.09-0.1c0.11-0.06,0.17-0.13,0.14-0.19
		c-0.02-0.05-0.01-0.08,0.02-0.06c0.05,0.03,0.13-0.09,0.26-0.46c0.06-0.17,0.06-0.26,0-0.47c-0.08-0.26-0.25-0.58-0.25-0.46
		c0,0.03-0.04,0-0.09-0.06c-0.23-0.31-0.8-0.21-1.21,0.22c-0.41,0.42-1.24,0.95-1.49,0.95c-0.06,0-0.12,0.04-0.14,0.08
		c-0.09,0.24-0.47,0.04-0.64-0.34c-0.27-0.58-1.22-1.5-1.4-1.34c-0.03,0.02-0.03,0.01-0.01-0.03c0.04-0.07-0.21-0.21-0.37-0.21
		c-0.05,0-0.09-0.03-0.09-0.06c0-0.03-0.09-0.07-0.21-0.09c-0.45-0.08-0.53-0.1-0.71-0.15c-0.24-0.07-1.64-0.04-1.92,0.04
		c-0.11,0.04-0.23,0.07-0.25,0.07c-0.31,0.05-1.28,0.48-1.28,0.58c0,0.03-0.03,0.06-0.06,0.06c-0.03,0-0.15,0.09-0.26,0.19
		c-0.11,0.1-0.22,0.19-0.25,0.19c-0.03,0-0.07,0.06-0.09,0.13c-0.02,0.07-0.07,0.16-0.12,0.21c-0.18,0.19-0.36,0.49-0.36,0.61
		c0,0.07-0.03,0.15-0.07,0.17c-0.04,0.02-0.05,0.08-0.04,0.12c0.02,0.05,0.02,0.1-0.01,0.12c-0.05,0.05-0.06,0.82-0.01,0.89
		c0.02,0.03,0.07,0.18,0.11,0.32c0.14,0.52,1.23,1.4,1.56,1.27c0.05-0.02,0.11,0.01,0.14,0.06c0.03,0.05,0.15,0.1,0.27,0.12
		c0.12,0.02,0.22,0.03,0.22,0.04c0,0.02,0.26,0.07,0.54,0.1c0.43,0.05,1.2,0.07,1.2,0.03c0-0.02,0.14-0.04,0.31-0.05
		c0.27-0.01,0.31,0,0.27,0.1c-0.08,0.2-0.29,0.52-0.35,0.52c-0.03,0-0.04,0.02-0.02,0.05c0.08,0.12-1.13,1.14-1.48,1.25
		c-0.09,0.03-0.2,0.08-0.25,0.13c-0.05,0.04-0.19,0.1-0.32,0.13c-0.12,0.03-0.29,0.08-0.38,0.13c-0.09,0.04-0.3,0.1-0.47,0.13
		c-0.17,0.03-0.37,0.06-0.44,0.08c-0.19,0.04-1.13,0.05-1.2,0.02c-0.03-0.02-0.12-0.03-0.19-0.04c-0.25-0.01-0.9-0.16-1.17-0.27
		c-0.05-0.02-0.12-0.03-0.14-0.03c-0.03,0.01-0.05-0.02-0.05-0.06c0-0.04-0.06-0.06-0.12-0.04c-0.07,0.02-0.12,0-0.11-0.04
		c0.01-0.04-0.01-0.07-0.05-0.07c-0.03,0-0.19-0.09-0.35-0.19c-0.16-0.1-0.32-0.18-0.36-0.18c-0.04,0-0.06-0.02-0.05-0.04
		c0.02-0.02-0.09-0.16-0.24-0.29c-0.6-0.56-1.06-1.36-1.28-2.25c-0.01-0.03-0.02-0.05-0.03-0.06c-0.02-0.02-0.03-0.13-0.1-0.65
		c-0.03-0.21-0.06-0.4-0.08-0.43c-0.04-0.07-0.04-1.6,0-1.74c0.02-0.06,0.05-0.27,0.07-0.46c0.07-0.63,0.39-2.03,0.58-2.5
		c0.06-0.14,0.15-0.37,0.2-0.51c0.05-0.14,0.24-0.54,0.41-0.9c0.17-0.36,0.3-0.66,0.29-0.68c-0.01-0.02,0.03-0.07,0.09-0.1
		c0.06-0.03,0.11-0.1,0.11-0.15s0.02-0.09,0.05-0.09c0.03,0,0.15-0.15,0.26-0.33c0.24-0.37,1.46-1.6,1.55-1.55
		c0.02,0.01,0.09-0.03,0.16-0.09c1.22-1.04,3.62-0.71,4.19,0.58c0.05,0.1,0.1,0.19,0.12,0.19c0.02,0,0.06,0.07,0.08,0.16
		c0.02,0.09,0.07,0.16,0.11,0.16c0.04,0,0.05,0.03,0.03,0.06c-0.07,0.11,0.37,0.83,0.64,1.07c0.7,0.61,1.9,0.39,2.33-0.44
		c0.2-0.38,0.16-1.66-0.05-1.54c-0.03,0.02-0.04,0.01-0.02-0.03c0.06-0.1-0.07-0.41-0.16-0.36c-0.04,0.03-0.06,0.02-0.03-0.02
		c0.08-0.14-0.36-0.78-0.53-0.78c-0.04,0-0.06-0.02-0.04-0.04c0.04-0.04-0.4-0.48-0.78-0.77c-0.23-0.18-0.82-0.49-1.36-0.71
		c-1.01-0.42-2.88-0.54-3.97-0.24c-0.15,0.04-0.31,0.08-0.36,0.1c-0.61,0.15-1.28,0.4-1.45,0.55c-0.06,0.06-0.13,0.08-0.15,0.06
		c-0.02-0.02-0.09,0.01-0.15,0.06c-0.06,0.05-0.32,0.22-0.57,0.36c-0.25,0.15-0.54,0.34-0.63,0.44c-0.09,0.09-0.19,0.17-0.22,0.17
		c-0.15,0-1.82,1.81-1.82,1.98c0,0.03-0.06,0.11-0.13,0.17c-0.07,0.06-0.13,0.15-0.13,0.2c0,0.05-0.02,0.09-0.05,0.09
		c-0.03,0-0.12,0.12-0.19,0.27c-0.08,0.15-0.22,0.42-0.32,0.6c-0.1,0.18-0.16,0.33-0.14,0.33c0.02,0-0.01,0.05-0.07,0.12
		c-0.06,0.07-0.12,0.16-0.13,0.21c-0.01,0.05-0.06,0.18-0.12,0.31c-0.14,0.3-0.5,1.27-0.53,1.42c-0.01,0.07-0.05,0.2-0.08,0.29
		c-0.05,0.14-0.21,0.76-0.23,0.92c-0.01,0.03-0.02,0.09-0.02,0.13c-0.01,0.03-0.01,0.09-0.01,0.11c0,0.03-0.02,0.1-0.05,0.16
		c-0.12,0.23-0.4,2.1-0.41,2.78c0,0.15-0.02,0.27-0.04,0.27s-0.04,0.18-0.04,0.39c-0.01,0.38-0.22,1-0.34,1
		c-0.03,0-0.05,0.04-0.05,0.09c0,0.05-0.06,0.15-0.13,0.24c-0.07,0.08-0.2,0.25-0.3,0.36c-0.1,0.12-0.21,0.25-0.26,0.3
		c-0.05,0.05-0.07,0.09-0.06,0.09c0.02,0-0.1,0.13-0.26,0.28c-0.16,0.16-0.3,0.28-0.33,0.28c-0.02,0-0.13,0.08-0.23,0.17
		c-0.11,0.1-0.28,0.22-0.38,0.27c-0.1,0.05-0.33,0.18-0.5,0.28c-0.17,0.1-0.36,0.19-0.42,0.2c-0.06,0.01-0.16,0.05-0.22,0.08
		c-0.06,0.03-0.14,0.06-0.16,0.07c-0.14,0.01-0.4,0.09-0.46,0.14c-0.07,0.06-1.57,0.04-1.8-0.02c-1-0.27-1.67-0.71-2.31-1.51
		c-0.13-0.16-0.23-0.32-0.23-0.36c0-0.04-0.03-0.07-0.07-0.07s-0.05-0.03-0.03-0.06c0.02-0.03-0.01-0.09-0.06-0.13
		c-0.05-0.04-0.11-0.16-0.13-0.26c-0.02-0.1-0.07-0.17-0.1-0.15c-0.03,0.02-0.04,0-0.02-0.05c0.02-0.05,0-0.13-0.05-0.18
		c-0.05-0.05-0.09-0.14-0.1-0.21c-0.03-0.26-0.07-0.45-0.14-0.7c-0.04-0.14-0.09-0.5-0.11-0.79c-0.02-0.3-0.06-0.63-0.09-0.74
		c-0.03-0.11-0.03-0.21,0-0.21c0.03,0,0.07-0.3,0.09-0.67c0.02-0.37,0.12-1.02,0.2-1.44c0.19-0.9,0.2-0.96,0.21-0.96
		c0.02,0,0.07-0.25,0.08-0.35c0-0.05,0.04-0.15,0.09-0.22c0.05-0.07,0.09-0.18,0.09-0.26c0-0.07,0.03-0.16,0.07-0.2
		c0.04-0.04,0.07-0.11,0.08-0.15c0.01-0.05,0.07-0.2,0.13-0.34c0.06-0.14,0.1-0.25,0.1-0.25c-0.01,0,0.35-0.68,0.57-1.08
		c0.08-0.14,0.19-0.3,0.24-0.36c0.05-0.06,0.08-0.11,0.05-0.11c-0.03,0,0-0.04,0.05-0.1c0.05-0.05,0.1-0.14,0.1-0.19
		s0.04-0.09,0.08-0.09c0.04,0,0.13-0.09,0.2-0.2c0.06-0.11,0.32-0.39,0.57-0.64c0.25-0.24,0.45-0.47,0.44-0.5s0.01-0.05,0.03-0.05
		c0.1,0.02,0.27-0.09,0.27-0.19c0-0.05,0.02-0.08,0.04-0.06c0.02,0.02,0.23-0.06,0.46-0.18c0.23-0.12,0.45-0.22,0.48-0.23
		c0.03-0.01,0.13-0.04,0.22-0.07c0.44-0.17,1.27-0.19,1.57-0.03c0.72,0.38,0.88,1.05,0.49,2.12c-0.05,0.15-0.08,0.3-0.06,0.34
		c0.02,0.04,0.01,0.05-0.02,0.03c-0.04-0.02-0.09,0.01-0.11,0.07c-0.02,0.06-0.03,0.11-0.03,0.11c0.01,0-0.08,0.16-0.21,0.35
		c-0.65,1.02-0.47,1.94,0.45,2.29c0.43,0.16,1.48-0.01,1.35-0.22c-0.02-0.04-0.01-0.05,0.03-0.03c0.12,0.07,0.53-0.4,0.82-0.94
		c0.07-0.14,0.21-0.39,0.3-0.56c0.09-0.17,0.16-0.32,0.16-0.35c0-0.03,0.04-0.16,0.1-0.3c0.06-0.14,0.12-0.32,0.14-0.41
		c0.02-0.09,0.05-0.26,0.08-0.39c0.41-1.85-0.73-3.79-2.46-4.16C70.28,31.75,69.16,31.68,69.1,31.79 M85.17,42.65
		c0.1,0.04,0.17,0.05,0.17,0.02c0-0.02,0.03-0.01,0.08,0.03s0.13,0.08,0.19,0.08s0.11,0.03,0.11,0.07c0,0.04,0.09,0.17,0.19,0.29
		c0.25,0.28,0.24,0.32-0.08,0.37c-1.12,0.19-2-0.04-2.09-0.56c-0.02-0.1-0.02-0.16,0-0.14c0.02,0.02,0.13-0.03,0.24-0.1
		c0.12-0.07,0.24-0.11,0.27-0.09c0.03,0.02,0.07,0.01,0.09-0.02C84.4,42.53,84.95,42.56,85.17,42.65 M43.79,54.74
		c0.24,0.04,0.59,0.12,0.77,0.17c0.18,0.05,0.39,0.1,0.47,0.12c0.08,0.01,0.18,0.06,0.23,0.1c0.05,0.04,0.12,0.05,0.15,0.03
		c0.04-0.02,0.07-0.01,0.07,0.03c0,0.04,0.04,0.07,0.08,0.07c0.04,0,0.22,0.07,0.38,0.16c0.17,0.09,0.33,0.14,0.36,0.12
		c0.03-0.02,0.06-0.01,0.06,0.03c0,0.04,0.12,0.13,0.27,0.2c0.15,0.08,0.28,0.15,0.3,0.18c0.02,0.02,0.22,0.17,0.44,0.32
		c1.42,0.97,2.43,2.36,2.76,3.76c0.14,0.6,0.07,1.53-0.16,2.06c-0.05,0.12-0.1,0.24-0.1,0.25c0,0.02-0.08,0.16-0.18,0.33
		c-0.1,0.16-0.17,0.31-0.17,0.33c0,0.09-1.26,1.24-1.36,1.24c-0.03,0-0.02,0.03,0.03,0.07c0.08,0.05,0.07,0.06-0.04,0.03
		c-0.09-0.02-0.22,0.02-0.38,0.14c-0.14,0.1-0.35,0.23-0.48,0.3c-0.13,0.07-0.22,0.15-0.19,0.19s-0.01,0.03-0.07-0.02
		c-0.09-0.07-0.11-0.07-0.11,0.01c0,0.06-0.05,0.09-0.14,0.08c-0.08-0.01-0.16,0.01-0.17,0.03c-0.04,0.05-0.86,0.31-1.11,0.36
		c-0.1,0.02-0.28,0.06-0.39,0.1c-0.11,0.03-0.22,0.06-0.25,0.05c-0.03-0.01-0.07,0-0.09,0c-0.32,0.12-3.16,0.12-3.16-0.01
		c0-0.02-0.05-0.04-0.11-0.04c-0.29,0.01-1.06-0.1-1.28-0.19c-0.05-0.02-0.11-0.04-0.13-0.04c-0.05-0.01-0.53-0.12-0.63-0.13
		c-0.14-0.03-0.51-0.13-0.73-0.21c-0.1-0.04-0.39-0.14-0.64-0.22c-0.25-0.09-0.47-0.14-0.49-0.12c-0.02,0.02-0.04,0.01-0.04-0.04
		s-0.02-0.07-0.05-0.06c-0.06,0.01-0.2-0.05-1.22-0.53c-0.44-0.21-0.8-0.4-0.81-0.43c-0.01-0.03-0.05-0.06-0.09-0.06
		s-0.15-0.06-0.25-0.13c-0.1-0.07-0.18-0.11-0.18-0.09s-0.08-0.03-0.17-0.12c-0.1-0.09-0.19-0.16-0.22-0.16s-0.18-0.11-0.36-0.25
		c-0.17-0.14-0.33-0.23-0.35-0.21c-0.02,0.02-0.04-0.01-0.04-0.07c0-0.06-0.03-0.11-0.06-0.11c-0.1,0-1.02-0.9-1.46-1.43
		c-0.23-0.27-0.48-0.57-0.57-0.66c-0.09-0.09-0.16-0.18-0.16-0.19c0-0.02-0.03-0.02-0.06-0.01c-0.03,0.01-0.04-0.01-0.01-0.04
		c0.02-0.03-0.06-0.22-0.18-0.41c-0.12-0.19-0.24-0.42-0.26-0.51c-0.02-0.09-0.08-0.2-0.13-0.24c-0.05-0.04-0.09-0.12-0.09-0.18
		c0-0.06-0.04-0.18-0.1-0.28c-0.05-0.1-0.11-0.24-0.12-0.32c-0.02-0.07-0.07-0.29-0.13-0.48c-0.19-0.67-0.24-1.6-0.14-2.46
		c0.06-0.5,0.02-0.47,0.46-0.32c0.21,0.07,0.38,0.13,0.39,0.12c0.01,0,0.28,0.09,0.6,0.22c0.32,0.12,0.63,0.24,0.68,0.26
		c0.05,0.02,0.14,0.06,0.19,0.09c0.17,0.11,0.6,0.29,0.65,0.27c0.03-0.01,0.05,0.01,0.05,0.04c0,0.06,0.64,0.43,0.71,0.4
		c0.03-0.01,0.05,0.01,0.05,0.05c0,0.03,0.03,0.06,0.06,0.06c0.03,0,0.28,0.15,0.54,0.33c0.27,0.18,0.53,0.36,0.59,0.4
		c0.06,0.03,0.14,0.09,0.18,0.13c0.27,0.23,0.34,0.28,0.34,0.24c0-0.03,0.02-0.02,0.05,0.02c0.11,0.15,0.57,0.47,0.62,0.42
		c0.03-0.03,0.03-0.01,0,0.03c-0.03,0.05-0.01,0.08,0.06,0.08c0.06,0,0.08,0.03,0.06,0.07c-0.03,0.05-0.01,0.06,0.06,0.03
		c0.06-0.02,0.09-0.02,0.07,0.01c-0.02,0.03,0.06,0.13,0.17,0.21c0.56,0.44,0.79,0.71,0.83,0.98c0.02,0.15,0.05,0.3,0.08,0.33
		c0.02,0.03,0.05,0.14,0.07,0.23c0.11,0.6,1.48,2.55,1.8,2.55c0.03,0,0.12,0.06,0.19,0.12c0.07,0.07,0.15,0.11,0.18,0.1
		c0.03-0.02,0.08,0.01,0.11,0.05c0.1,0.12,0.54,0.13,0.64,0.01c0.1-0.12,0.05-0.61-0.1-0.95c-0.05-0.12-0.08-0.23-0.06-0.23
		c0.02,0-0.01-0.07-0.07-0.16c-0.06-0.09-0.08-0.16-0.05-0.16c0.03,0,0.01-0.05-0.05-0.11c-0.05-0.06-0.13-0.2-0.18-0.32
		c-0.05-0.11-0.11-0.21-0.14-0.21c-0.03,0-0.05-0.03-0.05-0.06c0-0.1-0.33-0.54-0.39-0.52c-0.03,0.01-0.05-0.01-0.03-0.04
		c0.05-0.09-0.21-0.4-0.3-0.35c-0.04,0.02-0.05,0.02-0.03-0.01c0.07-0.07-0.07-0.3-0.15-0.25c-0.04,0.03-0.05,0.01-0.03-0.03
		c0.02-0.04-0.13-0.25-0.37-0.49c-0.39-0.4-0.57-0.8-0.43-0.94c0.03-0.03,0.05-0.18,0.09-0.52c0-0.04,0.03-0.08,0.06-0.08
		c0.03,0,0.05-0.08,0.05-0.18c0-0.1,0.02-0.19,0.05-0.21c0.03-0.01,0.11-0.15,0.2-0.32c0.35-0.69,1.3-1.44,2.1-1.65
		c0.46-0.12,0.8-0.19,0.96-0.2c0.09-0.01,0.18-0.02,0.2-0.04C42.2,54.62,43.35,54.66,43.79,54.74 M108.79,54.71
		c0.56,0.09,1.12,0.23,1.22,0.31c0.04,0.03,0.14,0.05,0.21,0.03c0.07-0.02,0.11-0.01,0.09,0.02c-0.02,0.03,0.06,0.1,0.17,0.16
		c0.11,0.06,0.34,0.2,0.5,0.32c0.16,0.12,0.31,0.19,0.34,0.17c0.02-0.02,0.02,0.01,0,0.08c-0.04,0.1-0.02,0.11,0.07,0.07
		c0.07-0.03,0.1-0.03,0.08,0c-0.02,0.02,0.05,0.18,0.17,0.34c0.2,0.28,0.42,0.65,0.42,0.72c0,0.02,0.04,0.13,0.09,0.25
		c0.05,0.12,0.07,0.23,0.05,0.25c-0.02,0.02-0.01,0.04,0.02,0.04c0.03,0,0.06,0.05,0.06,0.11c0,0.06,0.02,0.26,0.05,0.44
		c0.04,0.29,0.03,0.34-0.09,0.45c-0.07,0.07-0.12,0.16-0.09,0.19c0.02,0.04,0,0.05-0.05,0.03c-0.09-0.03-0.22,0.11-1.02,1.08
		c-0.14,0.17-0.29,0.38-0.32,0.47c-0.04,0.09-0.13,0.23-0.21,0.32c-0.08,0.09-0.12,0.21-0.11,0.27c0.02,0.06,0,0.1-0.03,0.08
		c-0.05-0.03-0.24,0.31-0.25,0.46c0,0.03-0.03,0.1-0.07,0.16c-0.15,0.28-0.26,1.05-0.17,1.16c0.16,0.2,0.83,0.01,1.14-0.32
		c0.08-0.09,0.19-0.16,0.24-0.16c0.05,0,0.07-0.04,0.05-0.1c-0.02-0.05,0-0.09,0.04-0.08c0.04,0.01,0.07-0.02,0.06-0.06
		c-0.01-0.04,0.02-0.06,0.06-0.05c0.04,0.02,0.12-0.03,0.17-0.11c0.05-0.07,0.14-0.18,0.19-0.24c0.47-0.49,1.03-1.62,1.11-2.23
		c0.04-0.31,0.31-0.66,0.85-1.08c0.1-0.08,0.19-0.19,0.19-0.24c0-0.07,0.01-0.07,0.05-0.02c0.04,0.06,0.07,0.04,0.14-0.05
		c0.05-0.07,0.11-0.13,0.14-0.13c0.09,0,0.36-0.27,0.33-0.33c-0.02-0.03,0.01-0.04,0.07-0.02c0.05,0.02,0.1,0.01,0.1-0.03
		c0-0.04,0.03-0.07,0.07-0.07c0.04,0,0.14-0.07,0.24-0.16c0.09-0.09,0.2-0.16,0.23-0.16c0.03,0,0.15-0.08,0.26-0.17
		c0.11-0.1,0.3-0.23,0.42-0.3c0.6-0.35,1.07-0.61,1.32-0.74c0.16-0.08,0.29-0.17,0.31-0.19c0.01-0.03,0.07-0.05,0.14-0.05
		c0.06,0,0.14-0.03,0.16-0.06c0.02-0.03,0.09-0.06,0.16-0.06s0.12-0.03,0.12-0.06c0-0.03,0.04-0.06,0.1-0.06
		c0.05,0,0.15-0.03,0.21-0.06c0.23-0.12,0.56-0.27,0.66-0.29c0.06-0.01,0.17-0.04,0.24-0.05c0.07-0.02,0.16-0.05,0.2-0.07
		c0.04-0.02,0.2-0.08,0.36-0.12l0.29-0.07l0.07,0.31c0.12,0.53,0.06,1.9-0.12,2.55c-0.09,0.31-0.17,0.61-0.18,0.66
		c-0.01,0.05-0.05,0.11-0.07,0.13c-0.03,0.02-0.06,0.09-0.07,0.16c-0.06,0.32-0.81,1.64-1.05,1.86c-0.02,0.02-0.12,0.14-0.21,0.27
		c-0.1,0.13-0.25,0.31-0.35,0.4c-0.09,0.09-0.15,0.16-0.13,0.16c0.06,0-0.41,0.46-0.91,0.89c-0.22,0.19-0.45,0.39-0.51,0.45
		c-0.06,0.06-0.22,0.18-0.35,0.26c-0.13,0.08-0.28,0.2-0.33,0.26c-0.05,0.06-0.12,0.1-0.17,0.1c-0.05,0-0.09,0.03-0.09,0.06
		c0,0.03-0.03,0.06-0.07,0.06c-0.04,0-0.15,0.06-0.25,0.13c-0.1,0.07-0.18,0.11-0.18,0.09c0-0.02-0.1,0.03-0.22,0.13
		c-0.12,0.09-0.22,0.15-0.22,0.13c0-0.02-0.08,0.02-0.17,0.09c-0.09,0.07-0.19,0.13-0.23,0.13c-0.03,0-0.26,0.1-0.51,0.21
		c-0.25,0.12-0.53,0.24-0.61,0.26s-0.24,0.09-0.35,0.14c-0.1,0.05-0.26,0.11-0.34,0.12c-0.08,0.01-0.17,0.04-0.19,0.07
		c-0.02,0.03-0.11,0.06-0.2,0.07c-0.09,0.01-0.2,0.05-0.26,0.08c-0.06,0.03-0.2,0.07-0.31,0.09c-0.11,0.02-0.25,0.06-0.31,0.09
		c-0.06,0.03-0.23,0.07-0.39,0.1c-0.15,0.02-0.31,0.06-0.35,0.08c-0.04,0.02-0.12,0.05-0.19,0.05c-0.17,0.02-0.51,0.07-0.51,0.08
		c0,0.02-0.51,0.08-0.68,0.08c-0.1,0-0.17,0.02-0.17,0.04c0,0.05-0.66,0.09-1.68,0.09c-0.8,0-1.22-0.02-1.68-0.12
		c-0.39-0.08-0.8-0.17-0.89-0.21c-0.05-0.02-0.11-0.04-0.13-0.04c-0.04-0.01-0.37-0.13-0.89-0.34c-0.23-0.09-0.47-0.21-0.53-0.26
		c-0.1-0.08-0.11-0.08-0.07-0.01c0.03,0.05-0.02,0.03-0.1-0.05c-0.09-0.08-0.18-0.14-0.2-0.14c-0.03,0-0.08-0.03-0.12-0.06
		c-0.04-0.04-0.2-0.15-0.36-0.25c-0.16-0.1-0.44-0.34-0.63-0.52c-0.19-0.18-0.37-0.33-0.4-0.32c-0.03,0.01-0.04-0.01-0.04-0.03
		c0.02-0.07-0.27-0.52-0.33-0.52c-0.03,0-0.05-0.02-0.05-0.05c0.01-0.05-0.2-0.53-0.26-0.59c-0.02-0.02-0.04-0.07-0.05-0.13
		c-0.01-0.05-0.06-0.25-0.11-0.44c-0.05-0.19-0.08-0.4-0.06-0.46c0.02-0.06,0.01-0.12-0.02-0.14c-0.03-0.02-0.04-0.09-0.03-0.17
		c0.09-0.73,0.1-0.76,0.23-1.22c0.11-0.37,0.73-1.55,0.82-1.55c0.03,0,0.05-0.04,0.05-0.09c0-0.05,0.05-0.11,0.1-0.13
		c0.06-0.02,0.09-0.08,0.06-0.14c-0.02-0.05-0.01-0.08,0.02-0.06c0.06,0.03,0.64-0.57,0.64-0.67c0-0.03,0.03-0.05,0.06-0.05
		c0.11,0,0.69-0.47,0.69-0.56c0-0.05,0.03-0.07,0.06-0.05c0.03,0.02,0.11-0.02,0.17-0.08c0.13-0.12,0.58-0.39,1.01-0.6
		c0.14-0.07,0.27-0.16,0.3-0.2c0.03-0.04,0.05-0.05,0.05-0.02c0,0.03,0.09,0,0.21-0.06c0.11-0.06,0.23-0.11,0.27-0.12
		c0.03,0,0.12-0.03,0.19-0.06c0.07-0.03,0.23-0.09,0.35-0.14c0.12-0.05,0.32-0.11,0.44-0.13c0.12-0.03,0.24-0.05,0.25-0.06
		c0.13-0.04,0.7-0.12,0.83-0.12c0.09,0,0.18-0.02,0.2-0.04C107.56,54.63,108.47,54.66,108.79,54.71 M111.89,60.17
		c-0.09,0.2-0.23,0.45-0.32,0.57c-0.09,0.11-0.16,0.23-0.16,0.27s-0.04,0.08-0.1,0.1c-0.05,0.02-0.13,0.1-0.16,0.18
		c-0.04,0.08-0.14,0.2-0.24,0.27c-0.17,0.12-0.17,0.12-0.07,0c0.05-0.07,0.15-0.24,0.22-0.38c0.07-0.14,0.19-0.34,0.26-0.44
		c0.08-0.1,0.15-0.23,0.16-0.28c0.02-0.07,0.49-0.63,0.54-0.64C112.04,59.81,111.97,59.97,111.89,60.17 M38.91,59.97
		c0.07,0.05,0.1,0.09,0.06,0.09c-0.03,0-0.03,0.02,0.01,0.05c0.13,0.09,0.78,1.11,0.87,1.38c0.06,0.16-0.36-0.3-0.57-0.62
		c-0.08-0.13-0.18-0.24-0.22-0.24c-0.04,0-0.05-0.02-0.03-0.04c0.02-0.02-0.04-0.19-0.15-0.38C38.7,59.86,38.7,59.81,38.91,59.97
		 M103.44,75.6v0.73h0.68h0.68V75.6v-0.73h-0.68h-0.68V75.6 M8.23,75.04c-0.01,0.01-0.14,0.03-0.29,0.05
		c-0.15,0.02-0.32,0.06-0.38,0.09c-0.06,0.03-0.13,0.04-0.14,0.03c-0.05-0.05-0.62,0.23-0.62,0.31c0,0.04-0.02,0.05-0.04,0.03
		c-0.13-0.13-1.41,1.06-1.38,1.27c0,0.02-0.06,0.15-0.14,0.28c-0.08,0.13-0.14,0.26-0.12,0.3c0.02,0.03,0.01,0.07-0.03,0.08
		C5.06,77.49,5.01,77.55,5,77.62s-0.07,0.25-0.12,0.41c-0.1,0.32-0.14,1.94-0.05,2.05c0.03,0.04,0.06,0.1,0.06,0.13
		c0.01,0.19,0.16,0.72,0.25,0.85c0.06,0.09,0.1,0.18,0.09,0.21c-0.01,0.03,0.01,0.05,0.03,0.05c0.03,0,0.09,0.09,0.14,0.2
		C5.6,81.96,6.71,82.92,7.11,83c0.07,0.01,0.17,0.05,0.24,0.08c0.48,0.25,2.25,0.22,2.58-0.05c0.03-0.03,0.08-0.05,0.09-0.05
		c0.19-0.01,0.64-0.25,0.91-0.49c0.13-0.12,0.26-0.21,0.3-0.21c0.03,0,0.05-0.02,0.05-0.05c-0.02-0.12,0.01-0.21,0.07-0.18
		c0.03,0.02,0.09-0.03,0.14-0.11c0.04-0.08,0.09-0.16,0.11-0.18c0.06-0.05,0.32-0.43,0.32-0.47c0-0.02,0.07-0.19,0.16-0.39
		c0.09-0.2,0.18-0.43,0.19-0.52c0.02-0.09,0.05-0.25,0.08-0.36c0.23-0.84-0.25-3.32-0.64-3.32c-0.03,0-0.05-0.03-0.05-0.07
		c0-0.04-0.09-0.15-0.19-0.25c-0.1-0.1-0.17-0.18-0.16-0.18c0.02,0-0.07-0.09-0.21-0.21c-0.13-0.11-0.28-0.24-0.32-0.28
		c-0.04-0.04-0.14-0.09-0.21-0.12c-0.07-0.02-0.13-0.07-0.13-0.1c0-0.03-0.02-0.05-0.05-0.05c-0.03,0.01-0.15-0.03-0.27-0.09
		C9.7,75.15,8.34,74.93,8.23,75.04 M51.29,75.11c0,0.06-0.02,0.14-0.06,0.17c-0.03,0.03-0.11,0.2-0.17,0.38s-0.16,0.39-0.22,0.47
		c-0.06,0.09-0.11,0.17-0.11,0.19c0,0.05-0.08,0.27-0.15,0.44c-0.04,0.09-0.06,0.17-0.06,0.19c0,0.02-0.04,0.08-0.09,0.13
		c-0.05,0.06-0.09,0.13-0.08,0.16c0.01,0.03-0.05,0.2-0.13,0.37c-0.08,0.17-0.19,0.43-0.25,0.57c-0.06,0.14-0.14,0.32-0.19,0.39
		c-0.05,0.08-0.09,0.16-0.09,0.19c-0.01,0.07-0.16,0.45-0.31,0.76c-0.07,0.15-0.11,0.3-0.08,0.34c0.03,0.05,0.02,0.06-0.03,0.03
		c-0.04-0.03-0.07-0.02-0.07,0.02c0,0.04-0.07,0.22-0.16,0.41c-0.2,0.44-0.3,0.68-0.32,0.78c-0.01,0.05-0.05,0.13-0.1,0.18
		c-0.04,0.05-0.09,0.13-0.09,0.17c-0.01,0.04-0.06,0.19-0.13,0.33c-0.06,0.14-0.12,0.27-0.12,0.28c0,0.02-0.06,0.14-0.12,0.27
		c-0.06,0.13-0.09,0.27-0.06,0.32c0.02,0.04,0.02,0.06-0.01,0.03c-0.04-0.04-0.22,0.21-0.22,0.31c0,0.13,1.45,0.01,1.54-0.13
		c0.06-0.09,0.09-0.16,0.07-0.16c-0.02,0,0.01-0.09,0.06-0.19c0.05-0.11,0.08-0.22,0.06-0.26c-0.03-0.04-0.02-0.05,0.02-0.03
		c0.04,0.02,0.09-0.03,0.11-0.13c0.02-0.1,0.1-0.31,0.18-0.47l0.14-0.3h1.9h1.9l0.08,0.17c0.11,0.26,0.23,0.55,0.24,0.62
		c0.01,0.03,0.07,0.18,0.13,0.32c0.06,0.14,0.12,0.27,0.12,0.28c0.07,0.32,0.06,0.32,0.9,0.32c0.83,0,0.97-0.08,0.62-0.35
		c-0.05-0.04-0.07-0.09-0.05-0.1c0.02-0.02-0.03-0.17-0.1-0.34c-0.07-0.17-0.16-0.36-0.19-0.43c-0.03-0.07-0.12-0.27-0.19-0.44
		c-0.47-1.05-1.01-2.35-1.01-2.42c0-0.04-0.03-0.08-0.06-0.08c-0.03,0-0.06-0.03-0.06-0.07c0-0.07-0.11-0.33-0.41-0.98
		c-0.08-0.18-0.16-0.36-0.17-0.41c-0.01-0.05-0.04-0.11-0.05-0.12s-0.14-0.3-0.28-0.63c-0.13-0.33-0.32-0.77-0.42-0.98
		c-0.09-0.21-0.19-0.44-0.22-0.52C52.66,74.94,51.29,74.91,51.29,75.11 M27.72,75.09c-0.03,0.01-0.27,0.07-0.53,0.13
		c-0.88,0.2-1.78,0.87-1.87,1.38c-0.01,0.04-0.05,0.14-0.09,0.22c-0.22,0.39,0.03,1.85,0.31,1.85c0.03,0,0.06,0.04,0.06,0.09
		c0,0.05,0.04,0.09,0.09,0.09c0.05,0,0.14,0.06,0.19,0.14c0.05,0.08,0.1,0.12,0.1,0.09c0-0.03,0.05-0.01,0.11,0.04
		c0.24,0.21,0.66,0.38,1.12,0.45c0.07,0.01,0.24,0.05,0.38,0.09c0.14,0.04,0.38,0.08,0.53,0.1c0.15,0.02,0.29,0.05,0.32,0.07
		c0.03,0.02,0.14,0.05,0.26,0.07c0.11,0.02,0.31,0.08,0.43,0.13c0.12,0.05,0.25,0.07,0.29,0.05c0.04-0.02,0.05-0.01,0.02,0.03
		c-0.04,0.06,0.03,0.1,0.12,0.06c0.07-0.03,0.28,0.4,0.3,0.6c0.02,0.27-0.06,0.68-0.14,0.68c-0.03,0-0.06,0.04-0.06,0.1
		s-0.03,0.08-0.06,0.06c-0.03-0.02-0.12,0.02-0.21,0.08c-0.33,0.26-1.37,0.37-1.91,0.22c-0.28-0.08-1.1-0.59-0.95-0.59
		c0.05,0,0.04-0.06-0.02-0.17c-0.05-0.1-0.09-0.25-0.09-0.35l0-0.17h-0.76h-0.76l0.04,0.3c0.05,0.4,0.17,0.78,0.24,0.78
		c0.03,0,0.04,0.02,0.02,0.05c-0.04,0.07,0.28,0.46,0.35,0.42c0.03-0.02,0.04,0.01,0.02,0.06c-0.04,0.1,0.27,0.38,0.36,0.32
		c0.03-0.02,0.06,0,0.06,0.04s0.03,0.05,0.06,0.03c0.03-0.02,0.06-0.01,0.06,0.03c0,0.06,0.42,0.3,0.63,0.36
		c0.66,0.18,0.91,0.21,1.55,0.19c0.71-0.02,1.06-0.06,1.17-0.13c0.03-0.02,0.12-0.05,0.19-0.06c1.18-0.23,2.06-1.91,1.57-2.97
		c-0.13-0.29-0.33-0.6-0.38-0.6c-0.02,0-0.08-0.04-0.13-0.09c-0.14-0.14-0.57-0.39-0.87-0.51c-0.31-0.12-0.36-0.13-0.89-0.23
		c-0.29-0.05-0.65-0.13-1.41-0.28c-0.06-0.01-0.15-0.05-0.2-0.09c-0.04-0.04-0.11-0.06-0.14-0.05c-0.03,0.01-0.17-0.06-0.31-0.16
		c-0.14-0.09-0.23-0.17-0.19-0.17c0.03,0,0.02-0.03-0.02-0.08c-0.09-0.09-0.1-0.6-0.01-0.65c0.03-0.02,0.06-0.08,0.06-0.13
		c0-0.1,0.29-0.37,0.56-0.52c0.53-0.3,2.13,0.01,2.17,0.42c0,0.03,0.03,0.04,0.07,0.03c0.03-0.01,0.05,0.01,0.03,0.04
		c-0.02,0.03,0.02,0.16,0.08,0.29c0.06,0.13,0.09,0.25,0.06,0.27c-0.18,0.11,0.02,0.15,0.7,0.15h0.76l-0.03-0.35
		c-0.02-0.19-0.07-0.41-0.11-0.49c-0.04-0.08-0.07-0.15-0.07-0.17c0.02-0.17-0.64-0.95-0.8-0.95c-0.04,0-0.06-0.03-0.06-0.07
		s-0.03-0.05-0.06-0.03c-0.03,0.02-0.06,0.01-0.06-0.02c0-0.06-0.41-0.28-0.57-0.31c-0.21-0.03-0.48-0.09-0.57-0.13
		C28.72,75.11,27.81,75.06,27.72,75.09 M38.89,75.11c0,0.02-0.08,0.04-0.17,0.05c-0.1,0-0.26,0.04-0.36,0.09
		c-0.1,0.04-0.21,0.08-0.23,0.07c-0.07-0.01-0.68,0.54-0.64,0.58c0.02,0.02,0,0.04-0.04,0.04c-0.05,0-0.06,0.04-0.04,0.1
		c0.02,0.05,0.01,0.08-0.02,0.06c-0.18-0.11-0.35,1.08-0.22,1.51c0.05,0.16,0.07,0.29,0.06,0.29c-0.02,0,0.1,0.17,0.27,0.39
		c0.3,0.38,0.3,0.5,0.03,0.53c-0.19,0.02-0.93,0.78-0.98,1c-0.01,0.04-0.04,0.12-0.06,0.18c-0.03,0.06-0.05,0.18-0.06,0.27
		c0,0.09-0.03,0.16-0.05,0.16c-0.09,0,0,0.94,0.13,1.28c0.56,1.48,3.09,1.97,4.51,0.87c0.3-0.24,0.32-0.23,0.69,0.14l0.31,0.32h0.76
		c0.83,0,0.87-0.02,0.54-0.31c-0.12-0.11-0.22-0.22-0.22-0.26c0-0.03-0.06-0.08-0.13-0.1c-0.07-0.02-0.13-0.07-0.13-0.1
		c0-0.03-0.16-0.22-0.36-0.41l-0.36-0.35l0.26-0.52c0.3-0.61,0.37-0.82,0.45-1.36c0.09-0.58,0.09-0.58-0.57-0.58
		c-0.64,0-0.61-0.02-0.65,0.46c-0.02,0.2-0.06,0.42-0.1,0.49c-0.04,0.08-0.06,0.18-0.04,0.22c0.02,0.05-0.01,0.1-0.06,0.12
		c-0.05,0.02-0.09,0.08-0.09,0.13c0,0.16-0.05,0.12-0.59-0.45c-0.29-0.3-0.61-0.65-0.73-0.77c-0.19-0.19-0.21-0.29-0.09-0.3
		c0.27-0.03,1.09-0.65,1.09-0.84c0-0.04,0.03-0.08,0.06-0.08c0.22,0,0.38-1.31,0.19-1.65c-0.05-0.08-0.09-0.17-0.09-0.19
		c-0.03-0.2-0.61-0.82-0.76-0.82c-0.04,0-0.11-0.04-0.16-0.1s-0.09-0.08-0.11-0.07c-0.02,0.02-0.09,0-0.16-0.04
		C39.8,75.1,38.89,75.05,38.89,75.11 M17.98,75.29c-0.02,0.02-0.04,1.77-0.04,3.89v3.85h0.73h0.73v-3.89v-3.89h-0.69
		C18.33,75.25,18,75.27,17.98,75.29 M121.71,75.61c-0.02,0.02-0.04,0.34-0.04,0.7v0.65h-0.47h-0.47v0.54v0.54h0.47h0.47l0.01,1.38
		c0,0.76,0.01,1.43,0.02,1.5c0.02,0.15,0.11,0.91,0.11,1.03c0,0.04,0.03,0.08,0.05,0.08c0.03,0,0.06,0.06,0.08,0.14
		c0.04,0.15,0.31,0.49,0.38,0.49c0.02,0,0.09,0.04,0.14,0.1c0.05,0.05,0.14,0.08,0.19,0.06c0.05-0.02,0.08-0.01,0.06,0.02
		c-0.1,0.17,1.31,0.33,1.78,0.2l0.27-0.07l-0.02-0.52l-0.02-0.52l-0.54,0c-0.67,0-0.92-0.1-1.02-0.41c-0.06-0.18-0.09-3.4-0.03-3.46
		c0.01-0.01,0.33-0.02,0.72-0.02l0.71-0.01l-0.02-0.51l-0.02-0.51l-0.71-0.02l-0.71-0.02l-0.01-0.68l-0.01-0.68l-0.04,0.73
		l-0.04,0.73l-0.01-0.74L123,75.56h-0.62C122.03,75.56,121.73,75.58,121.71,75.61 M39.74,76.39c0.33,0.21,0.46,0.52,0.38,0.93
		c-0.03,0.18-0.31,0.55-0.41,0.56c-0.02,0-0.18,0.08-0.37,0.17l-0.33,0.17l-0.25-0.26c-0.14-0.14-0.25-0.28-0.26-0.3
		c0-0.02-0.02-0.1-0.04-0.17C38.25,76.61,39.02,75.94,39.74,76.39 M9.33,76.41c0.09,0.04,0.18,0.06,0.21,0.05
		c0.03-0.01,0.05,0.02,0.05,0.05c0,0.03,0.05,0.08,0.12,0.1c0.26,0.08,0.96,0.9,0.96,1.11c0,0.03,0.05,0.13,0.1,0.22
		c0.06,0.09,0.09,0.16,0.06,0.16s-0.01,0.08,0.03,0.17c0.15,0.38,0.07,1.63-0.14,2.21c-0.06,0.18-0.1,0.35-0.07,0.37
		c0.02,0.03,0.01,0.03-0.03,0.01c-0.04-0.02-0.09,0.01-0.11,0.07c-0.05,0.16-0.57,0.67-0.78,0.77c-0.1,0.05-0.26,0.12-0.35,0.18
		c-0.34,0.18-1.27,0.13-1.79-0.1c-0.42-0.19-1.06-0.93-1.13-1.32c-0.01-0.07-0.06-0.19-0.11-0.27C6.26,80,6.23,78.56,6.32,78.25
		c0.03-0.1,0.06-0.25,0.06-0.33c0-0.07,0.03-0.12,0.06-0.11c0.03,0.02,0.05,0,0.06-0.04c0-0.04,0.01-0.09,0.02-0.11
		c0-0.03,0.07-0.14,0.15-0.24c0.08-0.11,0.13-0.22,0.11-0.24c-0.02-0.02-0.01-0.03,0.01-0.01c0.02,0.02,0.1-0.04,0.16-0.13
		C7.4,76.47,8.66,76.13,9.33,76.41 M52.03,76.68c-0.04,0.04,0.08,0.37,0.34,0.94c0.08,0.17,0.15,0.34,0.16,0.36s0.02,0.06,0.03,0.08
		c0.01,0.02,0.02,0.05,0.03,0.08c0.05,0.22,0.2,0.51,0.25,0.48c0.03-0.02,0.04-0.01,0.01,0.04c-0.03,0.04-0.01,0.12,0.03,0.17
		c0.04,0.05,0.06,0.09,0.04,0.09c-0.02,0,0.01,0.07,0.06,0.16c0.06,0.09,0.08,0.16,0.05,0.16c-0.03,0-0.02,0.03,0.02,0.08
		c0.04,0.04,0.08,0.12,0.08,0.18c0,0.06,0.05,0.21,0.12,0.33c0.16,0.31,0.22,0.3-1.33,0.3c-1.33,0-1.38,0-1.32-0.12
		c0.03-0.07,0.05-0.14,0.02-0.16c-0.02-0.02-0.01-0.04,0.03-0.04c0.04,0,0.07-0.03,0.07-0.06c0-0.03,0.04-0.16,0.1-0.28
		c0.05-0.13,0.09-0.24,0.08-0.24c-0.01-0.01,0.03-0.1,0.09-0.21c0.11-0.22,0.3-0.65,0.33-0.79c0-0.02,0.07-0.17,0.15-0.34
		c0.08-0.17,0.14-0.33,0.14-0.36c0-0.03,0.04-0.13,0.09-0.23c0.05-0.1,0.09-0.23,0.09-0.29c0-0.1,0.18-0.36,0.25-0.36
		C52.06,76.64,52.05,76.66,52.03,76.68 M62.35,76.93c-0.13,0.05-0.24,0.07-0.24,0.05c0-0.02-0.07,0.02-0.16,0.07
		c-0.09,0.06-0.16,0.09-0.16,0.06s-0.08,0-0.17,0.05c-0.23,0.12-0.81,0.66-0.79,0.74c0.01,0.03-0.01,0.06-0.04,0.06
		c-0.09,0-0.21,0.55-0.18,0.83c0.06,0.5,0.22,0.87,0.33,0.76c0.03-0.03,0.04,0,0.02,0.05c-0.02,0.06,0.02,0.14,0.09,0.19
		c0.07,0.05,0.16,0.12,0.2,0.16c0.22,0.21,1.05,0.48,1.72,0.56c0.55,0.07,1.24,0.29,1.41,0.46c0.14,0.14,0.13,0.65-0.01,0.73
		c-0.06,0.03-0.09,0.09-0.06,0.13c0.03,0.04,0.01,0.05-0.03,0.02c-0.04-0.03-0.12-0.01-0.17,0.03c-0.05,0.04-0.09,0.06-0.09,0.04
		c0-0.02-0.07-0.01-0.16,0.02c-0.09,0.03-0.29,0.08-0.45,0.1c-0.16,0.02-0.31,0.04-0.33,0.04c-0.02,0-0.19-0.04-0.37-0.1
		c-0.18-0.06-0.38-0.12-0.42-0.13c-0.12-0.02-0.34-0.28-0.39-0.46c-0.04-0.14-0.06-0.15-0.73-0.15h-0.69l0.04,0.19
		c0.02,0.1,0.05,0.27,0.07,0.37c0.02,0.1,0.09,0.25,0.16,0.33c0.07,0.08,0.16,0.19,0.2,0.25c0.52,0.7,3.14,1.06,3.8,0.51
		c0.04-0.03,0.09-0.06,0.1-0.05c0.02,0,0.15-0.07,0.29-0.16c1.35-0.85,0.92-2.77-0.67-3.05c-0.05-0.01-0.21-0.05-0.35-0.09
		c-0.25-0.07-0.63-0.14-0.88-0.16c-0.07-0.01-0.14-0.03-0.16-0.06c-0.02-0.03-0.17-0.05-0.33-0.06c-0.16-0.01-0.28-0.04-0.26-0.06
		c0.02-0.03-0.01-0.05-0.06-0.05c-0.37,0-0.53-0.58-0.24-0.87c0.3-0.3,1.13-0.45,1.46-0.27c0.07,0.04,0.13,0.05,0.13,0.03
		c0-0.2,0.58,0.52,0.6,0.73c0.01,0.08,0.13,0.1,0.68,0.11c0.73,0.02,0.82-0.03,0.72-0.36c-0.02-0.07-0.05-0.18-0.06-0.25
		c-0.09-0.48-1.05-1.26-1.66-1.35c-0.06-0.01-0.15-0.04-0.18-0.06C63.74,76.81,62.59,76.85,62.35,76.93 M72.96,76.88
		c0.01,0.02-0.04,0.05-0.13,0.06c-0.29,0.03-0.34,0.04-0.34,0.09c0,0.03-0.02,0.05-0.05,0.04c-0.08-0.02-0.52,0.14-0.52,0.19
		c0,0.02-0.09,0.09-0.21,0.16c-0.78,0.42-0.93,1.73-0.27,2.35c0.43,0.41,1.22,0.7,2.06,0.76c0.43,0.03,1.17,0.31,1.32,0.49
		c0.07,0.08,0.16,0.66,0.09,0.59c-0.01-0.01-0.09,0.03-0.17,0.11c-0.32,0.3-1.51,0.45-1.78,0.22c-0.05-0.04-0.09-0.05-0.09-0.03
		c0,0.13-0.5-0.31-0.54-0.47l-0.04-0.18H71.6c-0.72,0-0.89,0.1-0.62,0.37c0.06,0.06,0.06,0.08,0,0.08c-0.09,0,0.03,0.31,0.23,0.55
		c0.08,0.09,0.14,0.2,0.14,0.23c0,0.03,0.03,0.04,0.06,0.01s0.06-0.01,0.06,0.02c0,0.06,0.76,0.49,0.84,0.47
		c0.03-0.01,0.12,0.01,0.21,0.05c0.46,0.18,1.81,0.18,2.25,0.01c0.09-0.03,0.18-0.06,0.21-0.07c0.42-0.03,1.11-0.63,1.29-1.12
		c0.23-0.62-0.18-1.85-0.65-1.93c-0.02,0-0.15-0.06-0.3-0.12c-0.15-0.07-0.36-0.13-0.46-0.15c-0.1-0.02-0.27-0.06-0.36-0.1
		c-0.12-0.05-0.17-0.05-0.17,0c0,0.04-0.05,0.02-0.1-0.04c-0.08-0.08-0.12-0.09-0.2-0.02c-0.06,0.04-0.08,0.05-0.06,0.01
		c0.04-0.06-0.74-0.26-0.95-0.24c-0.04,0-0.08-0.02-0.08-0.05c0-0.03-0.05-0.06-0.11-0.06c-0.19,0-0.32-0.15-0.36-0.42
		c-0.09-0.58,0.48-0.85,1.57-0.77c0.06,0,0.11,0.03,0.11,0.06s0.04,0.05,0.09,0.05c0.05,0,0.09,0.03,0.09,0.07s0.02,0.05,0.05,0.03
		c0.08-0.05,0.3,0.28,0.36,0.52l0.05,0.21l0.71-0.02l0.71-0.02l-0.02-0.25c-0.05-0.61-0.92-1.64-1.22-1.45
		c-0.04,0.03-0.05,0.01-0.03-0.03c0.03-0.05,0-0.07-0.09-0.07c-0.07,0-0.13-0.03-0.13-0.07c0-0.04-0.02-0.06-0.04-0.03
		c-0.02,0.02-0.1,0.01-0.17-0.03C74.35,76.86,72.91,76.81,72.96,76.88 M83.16,76.86c-0.77,0.19-1.23,0.43-1.62,0.86
		c-0.38,0.43-0.44,0.49-0.45,0.54c-0.01,0.03-0.08,0.19-0.16,0.36c-0.23,0.49-0.35,1.73-0.21,2.12c0.01,0.02,0.01,0.05,0,0.08
		c0,0.03,0.02,0.11,0.06,0.18c0.04,0.07,0.08,0.2,0.1,0.29c0.04,0.21,0.39,0.75,0.65,1.02c0.22,0.22,0.76,0.61,0.76,0.55
		c0-0.02,0.06,0,0.14,0.05c0.42,0.26,2.08,0.34,2.49,0.12c0.06-0.03,0.13-0.06,0.15-0.06c0.09,0.01,0.32-0.1,0.32-0.15
		c0-0.03,0.03-0.05,0.06-0.03c0.03,0.02,0.12-0.02,0.2-0.09c0.08-0.07,0.17-0.13,0.19-0.13c0.07,0,0.7-0.75,0.72-0.85
		c0.01-0.05,0.06-0.14,0.12-0.21c0.06-0.06,0.1-0.14,0.1-0.16c0-0.03,0.05-0.2,0.1-0.4c0.1-0.35,0.18-1.42,0.1-1.42
		c-0.02,0-0.04-0.08-0.04-0.17c-0.02-0.62-0.8-1.91-1.15-1.91c-0.05,0-0.08-0.02-0.06-0.04C86.01,77.16,83.86,76.69,83.16,76.86
		 M94.36,76.94c-0.14,0.05-0.31,0.12-0.38,0.14c-0.07,0.03-0.14,0.05-0.16,0.04c-0.06-0.01-0.72,0.49-0.82,0.62
		c-0.05,0.07-0.15,0.18-0.21,0.24c-0.14,0.14-0.42,0.73-0.42,0.88c0,0.06-0.03,0.12-0.06,0.13c-0.03,0.01-0.07,0.17-0.08,0.35
		c-0.01,0.18-0.04,0.33-0.06,0.33c-0.04,0-0.02,0.36,0.03,0.87c0.02,0.15,0.09,0.43,0.16,0.63c0.07,0.2,0.14,0.4,0.14,0.44
		c0,0.04,0.05,0.09,0.09,0.11c0.05,0.02,0.08,0.07,0.08,0.12c0,0.16,0.65,0.77,1.01,0.94c0.44,0.21,0.86,0.36,0.91,0.32
		c0.02-0.02,0.07-0.01,0.11,0.01c0.36,0.22,1.95-0.09,2.4-0.47c0.13-0.11,0.27-0.23,0.3-0.25c0.26-0.18,0.78-1.08,0.82-1.42
		l0.02-0.2h-0.66h-0.66l-0.1,0.24c-0.11,0.27-0.5,0.72-0.67,0.77c-0.07,0.02-0.1,0.06-0.08,0.09c0.02,0.03-0.02,0.04-0.09,0.03
		c-0.07-0.01-0.13,0-0.13,0.03c0,0.09-0.98,0.06-1.15-0.03c-0.08-0.05-0.23-0.12-0.32-0.16c-0.1-0.04-0.17-0.1-0.17-0.15
		c0-0.04-0.05-0.11-0.12-0.15c-0.12-0.07-0.36-0.51-0.43-0.79c-0.08-0.3-0.04-1.66,0.05-1.6c0.02,0.01,0.07-0.07,0.12-0.18
		c0.17-0.39,0.65-0.77,1.08-0.84c0.09-0.02,0.23-0.04,0.32-0.06c0.19-0.04,1.01,0.15,1.01,0.23c0,0.03,0.04,0.06,0.08,0.06
		c0.09,0,0.44,0.5,0.55,0.79l0.07,0.19h0.66c0.77,0,0.78-0.01,0.51-0.59c-0.09-0.18-0.16-0.35-0.16-0.38
		c-0.02-0.1-0.28-0.42-0.54-0.67c-0.41-0.4-0.37-0.37-1.07-0.67C96.03,76.83,94.67,76.82,94.36,76.94 M113,76.9
		c0,0.03-0.04,0.03-0.09,0.01c-0.05-0.02-0.19,0-0.31,0.04c-0.12,0.04-0.28,0.08-0.36,0.1c-0.23,0.04-0.82,0.36-0.78,0.42
		c0.02,0.03,0,0.05-0.04,0.05c-0.12,0-0.57,0.63-0.61,0.85c-0.01,0.03-0.01,0.08-0.02,0.09c-0.01,0.02-0.02,0.12-0.04,0.24
		l-0.03,0.21h0.73c0.6,0,0.72-0.02,0.69-0.09c-0.02-0.05,0-0.16,0.05-0.24c0.04-0.08,0.07-0.17,0.07-0.2
		c-0.01-0.03,0.01-0.04,0.05-0.01c0.03,0.02,0.08,0,0.11-0.04c0.21-0.33,1.76-0.36,2.1-0.04c0.07,0.07,0.16,0.12,0.19,0.12
		c0.06,0,0.06,0.01,0.12,0.59l0.04,0.43l-0.72,0.01c-2.14,0.02-2.68,0.16-3.33,0.87c-0.18,0.2-0.25,0.42-0.21,0.65
		c0,0.03-0.02,0.05-0.06,0.05c-0.04,0-0.05,0.06-0.03,0.14c0.02,0.08,0.04,0.27,0.06,0.43c0.07,0.71,0.53,1.22,1.32,1.48
		c0.62,0.2,2.49,0.07,2.35-0.17c-0.02-0.04-0.02-0.05,0.01-0.03c0.07,0.06,0.29-0.06,0.43-0.24c0.16-0.21,0.19-0.19,0.29,0.14
		l0.08,0.28h0.69h0.69l-0.04-0.17c-0.08-0.39-0.09-0.55-0.09-1.91c0-1.25-0.04-1.95-0.16-2.55c-0.13-0.67-0.94-1.33-1.8-1.48
		C113.94,76.86,113,76.84,113,76.9 M131.79,76.91c-0.12,0.04-0.24,0.09-0.26,0.12c-0.02,0.03-0.06,0.05-0.09,0.05
		c-0.09-0.01-0.53,0.2-0.53,0.26c0,0.03-0.03,0.05-0.06,0.05c-0.29,0-1.09,1.26-1.18,1.87c-0.08,0.51-0.04,1.49,0.07,1.76
		c0.05,0.13,0.09,0.24,0.07,0.24c-0.02,0,0.07,0.18,0.2,0.4c0.46,0.81,1.22,1.35,2.05,1.48c0.57,0.09,1.95-0.04,1.86-0.18
		c-0.02-0.03,0.01-0.04,0.06-0.02c0.09,0.03,0.27-0.06,0.65-0.32c0.38-0.26,0.79-0.76,0.95-1.14l0.09-0.22h-0.76
		c-0.78,0-0.95,0.05-0.95,0.29c0,0.05-0.03,0.08-0.06,0.06c-0.03-0.02-0.09,0.01-0.14,0.06c-0.21,0.25-1.29,0.45-1.55,0.29
		c-0.03-0.02-0.08-0.04-0.09-0.05c-0.24-0.07-0.32-0.11-0.32-0.16c0-0.03-0.03-0.04-0.06-0.02c-0.03,0.02-0.08-0.02-0.1-0.08
		c-0.02-0.06-0.11-0.15-0.19-0.2c-0.09-0.05-0.14-0.11-0.12-0.13c0.02-0.03-0.01-0.09-0.07-0.15c-0.06-0.05-0.08-0.1-0.07-0.1
		s0.01-0.06-0.02-0.14c-0.03-0.08-0.07-0.22-0.09-0.32l-0.04-0.17h2.35h2.35l-0.02-0.59c-0.01-0.33-0.06-0.71-0.12-0.87
		c-0.21-0.6-0.75-1.45-0.85-1.35c-0.02,0.02-0.04,0.01-0.04-0.03c0-0.09-0.62-0.51-0.81-0.55c-0.07-0.01-0.2-0.06-0.28-0.1
		c-0.08-0.04-0.15-0.07-0.16-0.07c-0.01,0.01-0.02,0.01-0.03,0C133.33,76.84,131.96,76.86,131.79,76.91 M142.61,76.91
		c0,0.03-0.02,0.04-0.05,0.02c-0.08-0.05-0.88,0.21-0.98,0.31c-0.05,0.05-0.12,0.09-0.16,0.09c-0.11,0-0.7,0.75-0.71,0.9
		c-0.04,0.54-0.02,0.92,0.06,1.08c0.14,0.28,0.7,0.81,0.81,0.77c0.05-0.02,0.08-0.01,0.06,0.02c-0.02,0.03,0.1,0.1,0.27,0.15
		c0.17,0.05,0.36,0.11,0.42,0.14c0.09,0.04,0.11,0.03,0.07-0.04c-0.04-0.07-0.04-0.07,0.04-0.02c0.12,0.09,0.52,0.18,1.07,0.24
		c0.87,0.09,1.38,0.79,0.84,1.16c-0.11,0.08-0.21,0.14-0.22,0.14c-0.01,0-0.09,0.02-0.19,0.06c-0.71,0.27-1.71,0.02-1.92-0.47
		l-0.09-0.22h-0.69h-0.69l0.03,0.16c0.07,0.38,0.08,0.45,0.14,0.61c0.04,0.09,0.13,0.21,0.21,0.27c0.08,0.06,0.12,0.1,0.09,0.1
		c-0.09,0,0.21,0.22,0.6,0.43c0.19,0.11,0.37,0.18,0.39,0.17c0.02-0.02,0.13,0.01,0.25,0.06c0.22,0.09,1.66,0.14,1.79,0.05
		c0.03-0.02,0.17-0.05,0.31-0.06c0.35-0.03,0.89-0.31,1.14-0.58c0.04-0.05,0.13-0.14,0.2-0.22c0.2-0.22,0.29-0.51,0.28-0.86
		c-0.01-0.18,0-0.34,0.03-0.36c0.02-0.02,0.01-0.08-0.03-0.13c-0.04-0.05-0.05-0.09-0.03-0.09c0.34,0-0.72-0.98-1.2-1.12
		c-0.42-0.12-0.83-0.2-0.87-0.17c-0.03,0.02-0.05,0-0.05-0.03c0-0.03-0.14-0.07-0.3-0.09c-0.48-0.06-0.67-0.09-0.85-0.16
		c-0.09-0.04-0.18-0.05-0.2-0.03c-0.04,0.04-0.43-0.4-0.43-0.49c0-0.32,0.35-0.64,0.79-0.72c0.14-0.03,0.27-0.08,0.3-0.12
		c0.03-0.05,0.05-0.05,0.05,0.01c0,0.04,0.08,0.08,0.19,0.08c0.46,0,0.97,0.38,1.03,0.76c0.02,0.16,0.03,0.16,0.72,0.18l0.7,0.02
		l0.01-0.22c0.02-0.52-0.72-1.5-1.2-1.58c-0.05-0.01-0.15-0.05-0.23-0.09c-0.08-0.04-0.23-0.08-0.33-0.09c-0.1,0-0.2-0.03-0.22-0.06
		C143.8,76.81,142.61,76.84,142.61,76.91 M103.44,80.11v2.93h0.66h0.66v-2.91v-2.91l-0.66-0.02l-0.66-0.02V80.11 M84.53,78.14
		c0.1,0.05,0.17,0.07,0.17,0.05c0-0.04,0.46,0.43,0.63,0.65c0.05,0.07,0.1,0.16,0.11,0.21c0.01,0.05,0.04,0.22,0.08,0.38
		c0.07,0.28,0.07,1.2,0,1.2c-0.02,0-0.04,0.05-0.04,0.11c-0.04,0.48-0.57,1.06-1.13,1.21c-0.45,0.13-1.55-0.06-1.55-0.26
		c0-0.03-0.04-0.05-0.09-0.05c-0.05,0-0.09-0.03-0.09-0.07c0-0.04-0.06-0.13-0.13-0.21c-0.14-0.14-0.28-0.42-0.26-0.5
		c0.01-0.03-0.01-0.05-0.04-0.05c-0.03,0-0.05-0.05-0.06-0.11c0-0.06-0.03-0.29-0.05-0.51c-0.09-0.81,0.35-1.77,0.9-1.98
		c0.09-0.03,0.13-0.09,0.1-0.13c-0.02-0.04-0.02-0.06,0.01-0.04c0.03,0.02,0.19,0.01,0.34-0.01C83.8,77.97,84.3,78.02,84.53,78.14
		 M133.18,78.08c0.26,0.08,0.69,0.36,0.7,0.44c0,0.04,0.04,0.12,0.09,0.17c0.11,0.11,0.24,0.4,0.26,0.59l0.02,0.14h-1.61
		c-1.08,0-1.6-0.02-1.57-0.06c0.02-0.04,0.05-0.14,0.07-0.23c0.07-0.39,0.58-0.95,0.92-1.02c0.1-0.02,0.18-0.06,0.18-0.08
		C132.24,77.98,132.98,78.01,133.18,78.08 M123.04,80.07c-0.01,0.39-0.02,0.09-0.02-0.68c0-0.77,0.01-1.09,0.02-0.72
		C123.05,79.05,123.05,79.68,123.04,80.07 M39.62,80.62c0.83,0.84,0.84,0.85,0.7,0.95c-0.08,0.05-0.15,0.12-0.17,0.14
		c-0.02,0.03-0.12,0.07-0.22,0.09c-0.1,0.03-0.22,0.07-0.27,0.11c-0.04,0.03-0.11,0.04-0.14,0.02c-0.04-0.02-0.07-0.01-0.07,0.03
		c0,0.04-0.02,0.06-0.05,0.04c-0.03-0.02-0.22-0.04-0.43-0.05c-0.59-0.02-1.08-0.31-1.23-0.73c-0.15-0.4-0.01-1.18,0.23-1.27
		c0.05-0.02,0.08-0.06,0.06-0.09c-0.02-0.03,0.02-0.07,0.08-0.09c0.06-0.02,0.18-0.08,0.27-0.13
		C38.57,79.54,38.47,79.47,39.62,80.62 M114.76,80.43c0.13,0.01,0.14,0.03,0.1,0.21c-0.03,0.11-0.05,0.27-0.06,0.34
		c-0.08,0.72-0.88,1.27-1.7,1.19c-0.13-0.01-0.33-0.03-0.45-0.05c-0.91-0.09-0.99-1.3-0.1-1.59
		C112.96,80.41,113.48,80.38,114.76,80.43 M-0.16,0 M-0.16,0 M-0.16,0 M-0.16,0 M-0.16,0 M-0.16,0 M-0.16,0 M-0.16,0"/>
</g>
</svg>
